<svg width="19" height="20" viewBox="0 0 19 20" fill="none" xmlns="http://www.w3.org/2000/svg">
<g clip-path="url(#clip0_1452_1105)">
<mask id="mask0_1452_1105" style="mask-type:alpha" maskUnits="userSpaceOnUse" x="-2" y="1" width="24" height="18">
<rect x="-1.5" y="1.29395" width="23" height="17.4112" fill="#D9D9D9"/>
</mask>
<g mask="url(#mask0_1452_1105)">
<path d="M2.69287 33.4566V33.3126H3.57527V33.4566C3.57527 33.6834 3.73647 34.0155 4.16853 34.0155C4.68442 34.0155 4.7489 33.6167 4.7489 33.4566C4.7489 33.1406 4.70376 33.0138 4.49096 32.8644C4.38778 32.787 4.22012 32.7204 4.02666 32.6538C3.63975 32.5151 2.69287 32.1884 2.69287 31.048C2.69287 30.3333 3.33021 29.7906 4.15563 29.7906C5.05736 29.7906 5.61194 30.3494 5.61194 31.3081H4.71667C4.71667 30.7933 4.55544 30.5601 4.15671 30.5601C3.82138 30.5601 3.57634 30.7589 3.57634 31.048C3.57634 31.7123 3.9955 31.8068 4.34909 31.9337C4.5619 31.9949 4.78115 32.0777 4.94237 32.1723C5.41956 32.4549 5.63774 32.8644 5.63774 33.4566C5.63774 34.1262 5.12829 34.7861 4.16853 34.7861C3.33128 34.7861 2.69287 34.2154 2.69287 33.4566Z" fill="white"/>
<path d="M9.05765 33.4738H7.83349L7.52396 34.7087H6.54485L7.7561 29.8637H9.14147L10.3785 34.7087H9.37363L9.05765 33.4738ZM8.89644 32.7376L8.44503 30.5945L7.99363 32.7376H8.89644Z" fill="white"/>
<path d="M12.9365 32.6817L12.4861 33.4566V34.7087H11.506V29.8626H12.4861V31.8283L13.6523 29.8626H14.7668L13.5491 31.8681L14.7475 34.7087H13.6265L12.9365 32.6817Z" fill="white"/>
<path d="M18.9347 29.8626V34.7087H17.9427V32.6204H16.8476V34.7087H15.8362V29.8626H16.8476V31.8616H17.9427V29.8626H18.9347Z" fill="white"/>
<path d="M22.5814 33.4738H21.3573L21.0477 34.7087H20.0686L21.2799 29.8637H22.6653L23.9023 34.7087H22.8974L22.5814 33.4738ZM22.4202 32.7376L21.9688 30.5945L21.5174 32.7376H22.4202Z" fill="white"/>
<path d="M7.81737 19.0644H3.66339C3.514 19.0644 3.39255 19.1858 3.39255 19.3352V26.9156L2.75736 28.4804C2.73264 28.5428 2.72728 28.6137 2.75415 28.675C2.79391 28.7663 2.87989 28.8179 3.00026 28.8179H7.81629C7.96569 28.8179 8.08714 28.6965 8.08714 28.5471V26.9306C8.08714 26.7812 7.96569 26.6598 7.81629 26.6598H5.54962V21.2193H5.93007V26.016C5.93007 26.1654 6.05152 26.2868 6.20092 26.2868H7.81737C7.96676 26.2868 8.08821 26.1654 8.08821 26.016V19.3331C8.08821 19.1837 7.96676 19.0623 7.81737 19.0623" fill="white"/>
<path d="M23.0049 19.0569H21.3884C21.2208 19.0569 21.1176 19.159 21.1176 19.3277V26.6619H20.7447V19.3277C20.7447 19.159 20.6426 19.0569 20.4738 19.0569H18.8574C18.6897 19.0569 18.5865 19.159 18.5865 19.3277V26.6619H18.2061V19.3277C18.2061 19.159 18.104 19.0569 17.9352 19.0569H16.3263C16.1586 19.0569 16.0555 19.159 16.0555 19.3277V26.6619H15.6825V19.3277C15.6825 19.159 15.5804 19.0569 15.4117 19.0569H11.2652C11.0965 19.0569 10.9944 19.159 10.9944 19.3277V26.0106C10.9944 26.1794 11.0965 26.2815 11.2652 26.2815H12.8741C13.0418 26.2815 13.145 26.1794 13.145 26.0106V21.2139H13.5255V26.6619H10.6225V14.2881C12.3529 13.2187 17.4634 13.6411 17.4634 13.6411C16.0297 12.3815 13.6512 12.8372 13.6512 12.8372C16.6595 11.9623 15.3998 9.40977 15.3998 9.40977C15.3998 9.40977 15.1903 12.0333 13.5459 12.1031C11.9015 12.173 10.6429 13.7121 10.6429 13.7121C10.6429 13.7121 10.2582 12.0677 12.0423 10.6339C13.8264 9.20019 14.1058 7.13664 14.1058 7.13664C13.3363 9.40977 12.0423 9.44524 12.0423 9.44524C12.2873 6.29725 10.1883 5.24828 10.1883 5.24828C11.4479 6.26286 11.7972 9.62043 10.888 10.39C9.97872 11.1595 9.48862 13.6433 9.48862 13.6433C9.48862 13.6433 8.99854 11.1595 8.08929 10.39C7.18003 9.62043 7.52933 6.26286 8.78896 5.24828C8.78896 5.24828 6.68994 6.29725 6.93499 9.44524C6.93499 9.44524 5.64096 9.40977 4.87143 7.13664C4.87143 7.13664 5.15088 9.20019 6.93499 10.6339C8.7191 12.0677 8.33432 13.7121 8.33432 13.7121C8.33432 13.7121 7.0747 12.173 5.43138 12.1031C3.78699 12.0333 3.57741 9.40977 3.57741 9.40977C3.57741 9.40977 2.31778 11.9634 5.32605 12.8372C5.32605 12.8372 2.9476 12.3826 1.51386 13.6411C1.51386 13.6411 6.69101 12.9941 8.46867 14.0162C8.46652 14.0313 8.46438 14.0463 8.46438 14.0624V28.5481C8.46438 28.7158 8.56648 28.819 8.73522 28.819H23.0017C23.1693 28.819 23.2725 28.7169 23.2725 28.5481V19.3277C23.2725 19.159 23.1704 19.0569 23.0017 19.0569" fill="white"/>
<path d="M12.6538 7.84169C12.7011 7.69445 12.7441 7.5558 12.7753 7.44188C12.9204 6.91954 13.1385 5.82865 13.1385 5.82865C13.1385 5.82865 12.7634 6.87547 12.6183 7.39781C12.5861 7.51173 12.5517 7.6536 12.5162 7.80407C12.4313 7.4623 12.2336 6.57454 12.3507 6.15323C12.4969 5.62552 13.4459 4.72487 13.4459 4.72487C13.4459 4.72487 13.7941 5.98557 13.6469 6.51328C13.5298 6.93351 12.9042 7.59127 12.6549 7.84061" fill="white"/>
<path d="M11.9627 4.26057C11.7585 3.7522 10.7171 2.96117 10.7171 2.96117C10.7171 2.96117 10.5107 4.25304 10.7149 4.76141C10.8772 5.16659 11.5737 5.75234 11.8488 5.97267C11.7854 5.8308 11.7274 5.69753 11.6833 5.5879C11.4812 5.08491 11.1438 4.02519 11.1438 4.02519C11.1438 4.02519 11.6328 5.02472 11.8349 5.52664C11.8789 5.63627 11.9294 5.77276 11.981 5.91786C12.0283 5.56856 12.1261 4.66575 11.9638 4.26057" fill="white"/>
<path d="M9.44456 8.93365C9.24036 8.42529 8.1989 7.63426 8.1989 7.63426C8.1989 7.63426 7.99255 8.92613 8.19676 9.43449C8.35905 9.83968 9.05549 10.4254 9.33063 10.6458C9.26722 10.5039 9.20919 10.3706 9.16512 10.261C8.96307 9.758 8.62559 8.69828 8.62559 8.69828C8.62559 8.69828 9.1146 9.69781 9.31666 10.1997C9.36072 10.3094 9.41124 10.4458 9.46282 10.5909C9.51011 10.2416 9.60793 9.33884 9.44564 8.93365" fill="white"/>
<path d="M10.1722 4.40566C10.2119 3.85968 9.6219 2.69141 9.6219 2.69141C9.6219 2.69141 8.86955 3.7608 8.82979 4.30786C8.79862 4.74314 9.16727 5.57501 9.31773 5.89314C9.32311 5.7373 9.32956 5.59328 9.33816 5.47398C9.37685 4.93337 9.53914 3.83281 9.53914 3.83281C9.53914 3.83281 9.54021 4.94519 9.50152 5.4858C9.49292 5.60402 9.47788 5.74804 9.46069 5.90174C9.65629 5.60833 10.1399 4.83986 10.1722 4.40458" fill="white"/>
<path d="M6.37287 6.44234C6.26217 5.90604 5.37658 4.94304 5.37658 4.94304C5.37658 4.94304 4.94451 6.17688 5.05521 6.71426C5.14334 7.14202 5.72479 7.84169 5.95694 8.10716C5.91932 7.95669 5.886 7.81482 5.86236 7.69875C5.75273 7.16781 5.60872 6.0651 5.60872 6.0651C5.60872 6.0651 5.91287 7.13557 6.0225 7.66543C6.04614 7.7815 6.07194 7.92337 6.09666 8.07706C6.20521 7.74174 6.461 6.8701 6.37287 6.44234Z" fill="white"/>
<path d="M7.9904 5.23968C8.16236 4.71949 7.8754 3.44374 7.8754 3.44374C7.8754 3.44374 6.88446 4.29818 6.71357 4.81837C6.57708 5.23323 6.73185 6.12959 6.79956 6.47459C6.84255 6.32519 6.88447 6.18655 6.92101 6.0737C7.09082 5.55888 7.51642 4.53141 7.51642 4.53141C7.51642 4.53141 7.24666 5.61047 7.07685 6.12529C7.0403 6.23706 6.99086 6.37356 6.93604 6.51865C7.19721 6.28113 7.8539 5.65454 7.99147 5.24075" fill="white"/>
<path d="M4.09653 7.47412C3.77302 7.03239 2.56714 6.5251 2.56714 6.5251C2.56714 6.5251 2.68751 7.82772 3.01209 8.26945C3.27003 8.62197 4.09115 9.01533 4.41143 9.16043C4.3147 9.03898 4.22549 8.92398 4.15563 8.82832C3.83535 8.39089 3.24531 7.44832 3.24531 7.44832C3.24531 7.44832 3.96756 8.29417 4.28784 8.7316C4.3577 8.82725 4.44045 8.94655 4.52643 9.07445C4.48452 8.72407 4.35555 7.82557 4.0976 7.47304" fill="white"/>
<path d="M1.72989 11.3766C1.18498 11.325 0.00488281 11.8893 0.00488281 11.8893C0.00488281 11.8893 1.05815 12.6642 1.60306 12.7158C2.03727 12.7566 2.87774 12.4062 3.1991 12.2622C3.04433 12.2536 2.89924 12.2439 2.78101 12.2332C2.24148 12.1827 1.14521 11.9967 1.14521 11.9967C1.14521 11.9967 2.2576 12.0193 2.79714 12.0709C2.91429 12.0816 3.0583 12.0999 3.212 12.1203C2.92288 11.9183 2.16517 11.4174 1.73096 11.3766" fill="white"/>
<path d="M3.13246 13.7239C2.64989 13.9829 1.97923 15.105 1.97923 15.105C1.97923 15.105 3.28507 15.1684 3.76872 14.9094C4.15348 14.703 4.65863 13.9464 4.84779 13.6487C4.71344 13.7271 4.58769 13.7991 4.48344 13.855C4.00624 14.1108 2.98951 14.5633 2.98951 14.5633C2.98951 14.5633 3.92886 13.9668 4.40606 13.711C4.51031 13.6551 4.64036 13.5906 4.779 13.5229C4.42648 13.5154 3.51829 13.5175 3.13353 13.7228" fill="white"/>
<path d="M2.35432 8.88099C2.01577 8.45001 0.793771 7.98356 0.793771 7.98356C0.793771 7.98356 0.957127 9.2808 1.29568 9.71178C1.56544 10.0557 2.39839 10.4222 2.72405 10.5566C2.62302 10.4383 2.53059 10.3265 2.45751 10.233C2.12325 9.80636 1.50204 8.88421 1.50204 8.88421C1.50204 8.88421 2.25115 9.70641 2.58647 10.132C2.65956 10.2244 2.74555 10.3416 2.8369 10.4663C2.78424 10.118 2.62516 9.22276 2.3554 8.87991" fill="white"/>
<path d="M15.8373 8.63057C16.2865 8.31674 16.8185 7.12159 16.8185 7.12159C16.8185 7.12159 15.5138 7.21402 15.0656 7.52893C14.7077 7.77935 14.2961 8.5908 14.1445 8.90893C14.2681 8.81435 14.3853 8.72837 14.482 8.66066C14.9259 8.35005 15.8813 7.77935 15.8813 7.77935C15.8813 7.77935 15.0194 8.48332 14.5766 8.79393C14.4798 8.86164 14.3584 8.94118 14.2284 9.02501C14.5798 8.99062 15.4815 8.88099 15.8384 8.63057" fill="white"/>
<path d="M17.2925 12.7458C17.8331 12.6566 18.8305 11.8119 18.8305 11.8119C18.8305 11.8119 17.6149 11.3293 17.0743 11.4185C16.6434 11.4894 15.92 12.0419 15.646 12.2622C15.7986 12.231 15.9404 12.2031 16.0576 12.1848C16.5918 12.0967 17.6998 11.9978 17.6998 11.9978C17.6998 11.9978 16.6186 12.2579 16.0834 12.346C15.9673 12.3654 15.8233 12.3847 15.6696 12.4041C16.0006 12.5255 16.8605 12.8179 17.2914 12.7469" fill="white"/>
<path d="M17.7439 10.4813C18.1588 10.1234 18.5683 8.88099 18.5683 8.88099C18.5683 8.88099 17.2796 9.10454 16.8647 9.46244C16.5337 9.74832 16.207 10.5963 16.0877 10.9284C16.2016 10.822 16.308 10.7242 16.3983 10.6468C16.8089 10.2932 17.7009 9.6301 17.7009 9.6301C17.7009 9.6301 16.9142 10.4168 16.5047 10.7715C16.4155 10.8489 16.3026 10.9402 16.1823 11.037C16.5283 10.9671 17.414 10.7672 17.7439 10.4824" fill="white"/>
<path d="M15.6331 15.0018C16.1468 15.192 17.4322 14.9523 17.4322 14.9523C17.4322 14.9523 16.6143 13.9313 16.1006 13.7411C15.6911 13.5895 14.7894 13.711 14.4422 13.7669C14.5895 13.8152 14.727 13.8615 14.8388 13.9034C15.3472 14.0915 16.3585 14.5536 16.3585 14.5536C16.3585 14.5536 15.2902 14.2441 14.7818 14.056C14.6711 14.0151 14.5368 13.9603 14.3939 13.9012C14.6217 14.171 15.2247 14.8502 15.6331 15.0018Z" fill="white"/>
<path d="M13.9543 11.2487C14.3219 10.8424 14.5766 9.56024 14.5766 9.56024C14.5766 9.56024 13.3255 9.93963 12.9569 10.3459C12.6635 10.6694 12.4421 11.5529 12.3647 11.8957C12.4647 11.7764 12.5592 11.6657 12.6388 11.5787C13.002 11.1767 13.807 10.4093 13.807 10.4093C13.807 10.4093 13.1235 11.2863 12.7591 11.6883C12.6796 11.7753 12.5797 11.8807 12.4711 11.9914C12.8054 11.8807 13.6609 11.5733 13.9532 11.2498" fill="white"/>
<path d="M10.9073 7.43005C10.7612 6.90234 9.81428 5.99954 9.81428 5.99954C9.81428 5.99954 9.46391 7.25917 9.61007 7.78795C9.72615 8.20926 10.3527 8.86917 10.601 9.11851C10.5537 8.97019 10.5107 8.83155 10.4796 8.71762C10.3356 8.19529 10.1185 7.1044 10.1185 7.1044C10.1185 7.1044 10.4925 8.1523 10.6365 8.67463C10.6677 8.78856 10.702 8.92935 10.7375 9.07982C10.8235 8.73804 11.0223 7.85136 10.9062 7.43113" fill="white"/>
<path d="M5.99993 10.1858C5.61517 9.79561 4.34802 9.47104 4.34802 9.47104C4.34802 9.47104 4.65755 10.7414 5.04339 11.1315C5.35077 11.4422 6.21919 11.7119 6.55774 11.8087C6.44382 11.7023 6.33956 11.6023 6.25573 11.5174C5.87526 11.1316 5.15302 10.2857 5.15302 10.2857C5.15302 10.2857 5.99133 11.0165 6.3718 11.4024C6.45456 11.4862 6.55344 11.5926 6.65769 11.7065C6.56526 11.3658 6.30624 10.4953 5.99886 10.1858" fill="white"/>
<path d="M15.7019 6.81099C15.9157 6.57884 16.0694 5.83832 16.0694 5.83832C16.0694 5.83832 15.345 6.0522 15.1311 6.28435C14.9603 6.47029 14.8281 6.97865 14.7818 7.17641C14.8399 7.10762 14.8947 7.04529 14.9409 6.99477C15.1527 6.76477 15.6212 6.32519 15.6212 6.32519C15.6212 6.32519 15.2225 6.82818 15.0097 7.05926C14.9635 7.10977 14.9055 7.16888 14.842 7.23229C15.0355 7.16996 15.531 6.99585 15.7019 6.81099Z" fill="white"/>
<path d="M4.50386 6.17472C4.45979 5.86197 3.98583 5.273 3.98583 5.273C3.98583 5.273 3.69027 5.96837 3.73434 6.28113C3.76873 6.53047 4.07826 6.95608 4.20186 7.1173C4.18574 7.02917 4.17177 6.94641 4.16317 6.8787C4.12018 6.56917 4.07826 5.92753 4.07826 5.92753C4.07826 5.92753 4.21368 6.55519 4.25667 6.8658C4.26634 6.93351 4.27494 7.01627 4.28462 7.10547C4.35985 6.91631 4.5404 6.42407 4.50494 6.17472" fill="white"/>
<path d="M2.47363 7.60739C2.30059 7.343 1.62134 7.01304 1.62134 7.01304C1.62134 7.01304 1.65036 7.76753 1.82339 8.033C1.96096 8.24365 2.42204 8.49622 2.6026 8.58973C2.55101 8.51664 2.50264 8.44786 2.46502 8.39089C2.29414 8.12865 1.98246 7.56762 1.98246 7.56762C1.98246 7.56762 2.37259 8.07814 2.54348 8.33931C2.5811 8.39627 2.62517 8.46828 2.67031 8.54459C2.65741 8.34146 2.61013 7.81912 2.47256 7.60846" fill="white"/>
<path d="M1.29246 10.233C1.0184 10.0751 0.263905 10.0869 0.263905 10.0869C0.263905 10.0869 0.630395 10.7479 0.903386 10.9058C1.12156 11.0327 1.64713 11.0499 1.85026 11.052C1.77073 11.0101 1.69765 10.9703 1.63746 10.9359C1.36662 10.779 0.835688 10.4179 0.835688 10.4179C0.835688 10.4179 1.4139 10.6973 1.68474 10.8543C1.74386 10.8887 1.81479 10.9327 1.8911 10.98C1.78793 10.8048 1.51064 10.3588 1.29246 10.233Z" fill="white"/>
<path d="M9.24573 6.88407C9.14793 6.58314 8.57722 6.08874 8.57722 6.08874C8.57722 6.08874 8.40955 6.82496 8.50736 7.12589C8.58582 7.36557 8.96521 7.72884 9.1146 7.86641C9.08343 7.78258 9.05549 7.70304 9.034 7.63856C8.93619 7.34085 8.7825 6.71748 8.7825 6.71748C8.7825 6.71748 9.02648 7.31183 9.12429 7.60954C9.14578 7.67402 9.16942 7.75463 9.19413 7.84061C9.2339 7.64071 9.32526 7.12482 9.2468 6.88515" fill="white"/>
<path d="M10.6472 10.348C10.7504 10.0493 10.5946 9.30982 10.5946 9.30982C10.5946 9.30982 10.0163 9.79561 9.91316 10.0944C9.83041 10.333 9.91316 10.8521 9.9497 11.052C9.9755 10.966 10.0013 10.8865 10.0228 10.8209C10.1249 10.5254 10.3785 9.93534 10.3785 9.93534C10.3785 9.93534 10.2141 10.5566 10.112 10.8521C10.0894 10.9166 10.0604 10.9951 10.0282 11.0778C10.1808 10.9424 10.5645 10.5856 10.6472 10.348Z" fill="white"/>
<path d="M5.06597 14.1355C4.84242 14.3591 4.6597 15.0921 4.6597 15.0921C4.6597 15.0921 5.39162 14.9083 5.61625 14.6847C5.79466 14.5063 5.94727 14.0033 6.00101 13.8077C5.93975 13.8733 5.88278 13.9345 5.83442 13.9829C5.61301 14.2043 5.12722 14.6245 5.12722 14.6245C5.12722 14.6245 5.54638 14.1377 5.76778 13.9163C5.81614 13.8679 5.87633 13.8109 5.94189 13.7497C5.74521 13.8045 5.24438 13.9571 5.06597 14.1355Z" fill="white"/>
<path d="M13.4373 14.6643C13.7125 14.8212 14.4669 14.804 14.4669 14.804C14.4669 14.804 14.0962 14.1463 13.821 13.9894C13.6018 13.8647 13.0762 13.8507 12.8731 13.8496C12.9526 13.8905 13.0268 13.9302 13.0859 13.9646C13.3578 14.1194 13.8909 14.4773 13.8909 14.4773C13.8909 14.4773 13.3105 14.2011 13.0386 14.0463C12.9795 14.013 12.9075 13.9689 12.8322 13.9216C12.9365 14.0968 13.217 14.5396 13.4362 14.6643" fill="white"/>
<path d="M17.3548 8.87776C17.6096 8.68968 17.8997 7.99216 17.8997 7.99216C17.8997 7.99216 17.1485 8.06417 16.8938 8.25225C16.6906 8.40272 16.4649 8.87669 16.3822 9.06262C16.452 9.00673 16.5187 8.95515 16.5735 8.91431C16.825 8.72837 17.3688 8.38552 17.3688 8.38552C17.3688 8.38552 16.8819 8.80468 16.6305 8.98954C16.5756 9.03038 16.5069 9.07767 16.4327 9.12818C16.6348 9.10346 17.1539 9.02716 17.3559 8.87669" fill="white"/>
<path d="M14.8345 5.82973C14.9442 5.53309 14.8023 4.7915 14.8023 4.7915C14.8023 4.7915 14.2144 5.26547 14.1048 5.56211C14.0177 5.79856 14.0897 6.31982 14.123 6.51973C14.151 6.43482 14.1778 6.35529 14.2015 6.2908C14.309 5.99739 14.5744 5.41272 14.5744 5.41272C14.5744 5.41272 14.3982 6.03071 14.2896 6.32412C14.266 6.38753 14.2348 6.46599 14.2004 6.54874C14.3552 6.41655 14.7464 6.06725 14.8334 5.8308" fill="white"/>
<path d="M6.43307 4.4766C6.35354 4.17029 5.81293 3.64258 5.81293 3.64258C5.81293 3.64258 5.6012 4.36697 5.68073 4.67328C5.74414 4.91725 6.10096 5.30309 6.24283 5.44926C6.21704 5.36328 6.19339 5.28267 6.1762 5.21711C6.09666 4.91402 5.9806 4.28314 5.9806 4.28314C5.9806 4.28314 6.18802 4.89038 6.26755 5.19346C6.28475 5.25902 6.30409 5.34071 6.32344 5.42776C6.37503 5.23108 6.49755 4.72057 6.43307 4.47767" fill="white"/>
<path d="M13.3234 4.25949C13.4072 3.95426 13.203 3.22772 13.203 3.22772C13.203 3.22772 12.6581 3.75005 12.5743 4.05529C12.5077 4.29818 12.6248 4.81085 12.6742 5.00753C12.6947 4.92047 12.714 4.83879 12.7323 4.77216C12.815 4.47015 13.0289 3.86505 13.0289 3.86505C13.0289 3.86505 12.9064 4.49594 12.8236 4.79688C12.8054 4.86244 12.7817 4.94304 12.7548 5.02795C12.8978 4.88286 13.2578 4.50131 13.3245 4.25842" fill="white"/>
</g>
</g>
<defs>
<clipPath id="clip0_1452_1105">
<rect width="19" height="17" fill="white" transform="translate(0 1.5)"/>
</clipPath>
</defs>
</svg>
