<svg width="61" height="61" viewBox="0 0 61 61" fill="none" xmlns="http://www.w3.org/2000/svg">
<g clip-path="url(#clip0_1216_807)">
<path d="M25.7632 6.5C9.97355 6.5 0.5 19.2999 0.5 25.7005C0.5 32.1011 3.65743 36.9012 9.97355 36.9012C16.2897 36.9012 19.4484 38.5004 19.4484 43.3005C19.4484 49.6999 24.1845 54.5 30.5006 54.5C51.0277 54.5 60.5 43.3005 60.5 32.1011C60.4988 12.9006 44.7066 6.5 25.7632 6.5ZM21.8158 12.9006C22.3348 12.9013 22.8487 13.0052 23.328 13.2066C23.8072 13.4079 24.2426 13.7027 24.6091 14.074C24.9757 14.4454 25.2663 14.8861 25.4643 15.3709C25.6623 15.8558 25.7639 16.3753 25.7632 16.8999C25.7632 19.1104 23.9958 20.9004 21.8158 20.9004C19.6359 20.9004 17.8684 19.1092 17.8684 16.8999C17.8677 16.3753 17.9693 15.8558 18.1673 15.3709C18.3654 14.8861 18.6559 14.4454 19.0225 14.074C19.389 13.7027 19.8244 13.4079 20.3037 13.2066C20.7829 13.0052 21.2968 12.9013 21.8158 12.9006ZM34.4455 12.9006C34.9646 12.9013 35.4784 13.0052 35.9577 13.2066C36.437 13.4079 36.8723 13.7027 37.2389 14.074C37.6054 14.4454 37.896 14.8861 38.094 15.3709C38.292 15.8558 38.3936 16.3753 38.393 16.8999C38.3938 17.4245 38.2923 17.9441 38.0944 18.4291C37.8964 18.9141 37.6059 19.355 37.2393 19.7265C36.8727 20.098 36.4373 20.3929 35.958 20.5943C35.4786 20.7957 34.9647 20.8997 34.4455 20.9004C33.9265 20.8995 33.4127 20.7954 32.9335 20.5939C32.4543 20.3924 32.019 20.0975 31.6526 19.726C31.2862 19.3546 30.9957 18.9138 30.7978 18.4289C30.6 17.9439 30.4986 17.4244 30.4994 16.8999C30.498 15.8407 30.913 14.8245 31.653 14.0745C32.393 13.3245 33.3975 12.9023 34.4455 12.9006ZM47.0778 19.2999C47.597 19.3004 48.1111 19.4043 48.5906 19.6056C49.0701 19.807 49.5057 20.1018 49.8724 20.4734C50.2391 20.8449 50.5297 21.2858 50.7277 21.7709C50.9258 22.2559 51.0273 22.7757 51.0265 23.3004C51.0273 23.8251 50.9258 24.3448 50.7277 24.8298C50.5297 25.3148 50.239 25.7557 49.8723 26.1271C49.5056 26.4985 49.07 26.7932 48.5905 26.9944C48.111 27.1956 47.597 27.2994 47.0778 27.2997C46.5588 27.2992 46.0449 27.1953 45.5656 26.994C45.0863 26.7927 44.651 26.498 44.2845 26.1265C43.9181 25.7551 43.6276 25.3144 43.4298 24.8294C43.2319 24.3445 43.1306 23.825 43.1316 23.3004C43.1306 22.7759 43.2319 22.2562 43.4297 21.7712C43.6276 21.2863 43.918 20.8454 44.2845 20.4739C44.6509 20.1024 45.0863 19.8075 45.5655 19.606C46.0448 19.4046 46.5587 19.3006 47.0778 19.2999ZM10.7635 22.5008C11.2825 22.5013 11.7962 22.6052 12.2754 22.8064C12.7546 23.0076 13.1899 23.3023 13.5563 23.6736C13.9228 24.0448 14.2133 24.4855 14.4112 24.9702C14.6091 25.455 14.7105 25.9744 14.7097 26.4988C14.7097 28.7094 12.9422 30.4994 10.7635 30.4994C8.58483 30.4994 6.81612 28.7082 6.81612 26.4988C6.81512 25.4397 7.23041 24.4236 7.97066 23.6738C8.71091 22.9241 9.71551 22.5022 10.7635 22.5008ZM30.4994 38.5004C33.1156 38.5004 35.2355 40.6478 35.2355 43.3018C35.2355 45.952 33.1156 48.1007 30.4994 48.1007C27.8832 48.1007 25.7632 45.952 25.7632 43.3018C25.7621 42.6722 25.8837 42.0486 26.1211 41.4665C26.3585 40.8845 26.7071 40.3554 27.1469 39.9095C27.5868 39.4636 28.1092 39.1097 28.6844 38.8679C29.2597 38.6261 29.8764 38.5012 30.4994 38.5004Z" fill="#949494"/>
</g>
<defs>
<clipPath id="clip0_1216_807">
<rect width="60" height="60" fill="white" transform="translate(0.5 0.5)"/>
</clipPath>
</defs>
</svg>
