<svg width="47" height="47" viewBox="0 0 47 47" fill="none" xmlns="http://www.w3.org/2000/svg">
<path d="M39.95 9.4H35.25V7.05C35.25 3.055 32.195 0 28.2 0H18.8C14.805 0 11.75 3.055 11.75 7.05V9.4H7.05C3.055 9.4 0 12.455 0 16.45V18.8H47V16.45C47 12.455 43.945 9.4 39.95 9.4ZM30.55 9.4H16.45V7.05C16.45 5.64 17.39 4.7 18.8 4.7H28.2C29.61 4.7 30.55 5.64 30.55 7.05V9.4ZM0 39.95C0 43.945 3.055 47 7.05 47H39.95C43.945 47 47 43.945 47 39.95V23.5H0V39.95ZM18.8 32.9H21.15V30.55C21.15 29.14 22.09 28.2 23.5 28.2C24.91 28.2 25.85 29.14 25.85 30.55V32.9H28.2C29.61 32.9 30.55 33.84 30.55 35.25C30.55 36.66 29.61 37.6 28.2 37.6H25.85V39.95C25.85 41.36 24.91 42.3 23.5 42.3C22.09 42.3 21.15 41.36 21.15 39.95V37.6H18.8C17.39 37.6 16.45 36.66 16.45 35.25C16.45 33.84 17.39 32.9 18.8 32.9Z" fill="#949494"/>
</svg>
