<svg width="41" height="40" viewBox="0 0 41 40" fill="none" xmlns="http://www.w3.org/2000/svg">
<path opacity="0.4" d="M20.49 28.7252L12.9163 32.5082C12.3444 32.8186 11.631 32.6114 11.3111 32.0418C11.2176 31.8627 11.1682 31.6637 11.167 31.4614V22.9937C11.167 23.8332 11.6403 24.3514 12.8855 24.9318L20.49 28.7252Z" fill="#828282"/>
<path fill-rule="evenodd" clip-rule="evenodd" d="M16.8781 9.3335H24.0814C27.2405 9.3335 29.8028 10.5772 29.8337 13.7591V31.4615C29.8324 31.6605 29.7829 31.8561 29.6896 32.0315C29.5396 32.3176 29.2806 32.53 28.972 32.6199C28.6635 32.7098 28.3319 32.6695 28.0534 32.5083L20.49 28.7253L12.8855 24.9319C11.6403 24.3515 11.167 23.8333 11.167 22.9938V13.7591C11.167 10.5772 13.7293 9.3335 16.8781 9.3335ZM16.0961 18.2261H24.8737C25.3795 18.2261 25.7896 17.8132 25.7896 17.3037C25.7896 16.7943 25.3795 16.3813 24.8737 16.3813H16.0961C15.5903 16.3813 15.1802 16.7943 15.1802 17.3037C15.1802 17.8132 15.5903 18.2261 16.0961 18.2261Z" fill="#828282"/>
</svg>
