<svg width="41" height="40" viewBox="0 0 41 40" fill="none" xmlns="http://www.w3.org/2000/svg">
<path fill-rule="evenodd" clip-rule="evenodd" d="M10 18V16.0386C10 12.3189 12.3282 10 15.9819 10H25.0066C28.6948 10 31 12.2718 31 15.9668V18V26.431C31 29.8796 28.6948 32 25.0066 32H15.9819C12.3282 32 10 29.8357 10 26.364V18ZM25.4756 29.105C24.9454 29.0933 24.5189 28.65 24.5189 28.1133C24.5074 27.5766 24.9339 27.1345 25.464 27.1228H25.4756C26.0173 27.1228 26.4553 27.5661 26.4553 28.1133C26.4553 28.6616 26.0173 29.105 25.4756 29.105ZM19.7818 23.8794C19.8049 24.4149 20.2429 24.8361 20.7731 24.8116C21.2917 24.7894 21.7066 24.3461 21.6836 23.8083C21.6721 23.2844 21.2456 22.8749 20.727 22.8749C20.1968 22.8994 19.7818 23.3428 19.7818 23.8794ZM20.7731 19.8116C20.2429 19.8361 19.8049 19.4149 19.7818 18.8794C19.7818 18.3427 20.1968 17.8994 20.727 17.8749C21.2456 17.8749 21.6721 18.2844 21.6836 18.8082C21.7066 19.3461 21.2917 19.7894 20.7731 19.8116ZM19.7818 28.1131C19.8049 28.6498 20.2429 29.071 20.7731 29.0465C21.2917 29.0243 21.7066 28.581 21.6836 28.0443C21.6721 27.5193 21.2456 27.1098 20.727 27.1098C20.1968 27.1343 19.7818 27.5765 19.7818 28.1131ZM16.036 24.8116C15.5058 24.8361 15.0678 24.4149 15.0448 23.8794C15.0448 23.3428 15.4597 22.8994 15.9899 22.8749C16.5085 22.8749 16.935 23.2844 16.9465 23.8083C16.9696 24.3461 16.5546 24.7894 16.036 24.8116ZM15.0448 18.8794C15.0678 19.4149 15.5058 19.8361 16.036 19.8116C16.5546 19.7894 16.9696 19.3461 16.9465 18.8082C16.935 18.2844 16.5085 17.8749 15.9899 17.8749C15.4597 17.8994 15.0448 18.3427 15.0448 18.8794ZM16.0243 29.0465C15.4941 29.071 15.0562 28.6498 15.0331 28.1131C15.0331 27.5765 15.448 27.1343 15.9782 27.1098C16.4969 27.1098 16.9233 27.5193 16.9349 28.0443C16.9579 28.581 16.543 29.0243 16.0243 29.0465ZM25.4757 22.8877C24.9455 22.8994 24.5306 23.331 24.5306 23.8677V23.8794C24.5421 24.4149 24.9801 24.8232 25.5102 24.8115C26.0289 24.801 26.4438 24.3577 26.4323 23.821C26.4093 23.3065 25.9943 22.8877 25.4757 22.8877ZM24.5306 18.8676C24.5306 18.331 24.9455 17.8993 25.4757 17.8876C25.9943 17.8876 26.4093 18.3065 26.4323 18.821C26.4438 19.3576 26.0289 19.801 25.5102 19.8115C24.9801 19.8231 24.5421 19.4148 24.5306 18.8793V18.8676ZM15.5001 13C14.6717 13 14.0001 13.6715 14.0001 14.5C14.0001 15.3284 14.6717 16 15.5001 16H25.5001C26.3285 16 27.0001 15.3284 27.0001 14.5C27.0001 13.6715 26.3285 13 25.5001 13H15.5001Z" fill="#828282"/>
</svg>
