<svg width="17" height="16" viewBox="0 0 17 16" fill="none" xmlns="http://www.w3.org/2000/svg">
<path d="M6.64866 15.5H10.352C12.9528 15.5 14.2537 15.5 15.1878 14.8875C15.5909 14.6234 15.9381 14.2824 16.2095 13.8842C16.8337 12.9675 16.8337 11.69 16.8337 9.13671C16.8337 6.58254 16.8337 5.30587 16.2095 4.38921C15.9381 3.99096 15.5909 3.65004 15.1878 3.38587C14.5878 2.99171 13.8362 2.85087 12.6853 2.80087C12.1362 2.80087 11.6637 2.39254 11.5562 1.86337C11.474 1.47576 11.2605 1.1284 10.9519 0.879998C10.6432 0.631593 10.2582 0.497379 9.86199 0.500039H7.13866C6.31533 0.500039 5.60616 1.07087 5.44449 1.86337C5.33699 2.39254 4.86449 2.80087 4.31533 2.80087C3.16533 2.85087 2.41366 2.99254 1.81283 3.38587C1.41001 3.65009 1.06314 3.99102 0.791992 4.38921C0.166992 5.30587 0.166992 6.58254 0.166992 9.13671C0.166992 11.69 0.166992 12.9667 0.791159 13.8842C1.06116 14.2809 1.40783 14.6217 1.81283 14.8875C2.74699 15.5 4.04783 15.5 6.64866 15.5Z" fill="white"/>
<path d="M13.1307 5.7266C13.0403 5.72583 12.9506 5.74287 12.8668 5.77675C12.783 5.81064 12.7067 5.86069 12.6423 5.92407C12.5778 5.98745 12.5264 6.0629 12.4911 6.14612C12.4558 6.22934 12.4373 6.3187 12.4365 6.40909C12.4365 6.78576 12.7474 7.09076 13.1307 7.09076H14.0565C14.4399 7.09076 14.7515 6.78493 14.7515 6.40909C14.7508 6.31863 14.7322 6.2292 14.6968 6.14593C14.6615 6.06265 14.6101 5.98716 14.5455 5.92377C14.481 5.86039 14.4045 5.81034 14.3206 5.77651C14.2367 5.74268 14.147 5.72572 14.0565 5.7266H13.1307Z" fill="#4D4D4D"/>
<path fill-rule="evenodd" clip-rule="evenodd" d="M8.49999 5.72656C6.58332 5.72656 5.02832 7.25323 5.02832 9.13573C5.02832 11.0191 6.58249 12.5449 8.50082 12.5449C10.4175 12.5449 11.9725 11.0191 11.9725 9.13656C11.9725 7.25323 10.4183 5.72656 8.50082 5.72656H8.49999ZM8.49999 7.09073C7.34999 7.09073 6.41665 8.00656 6.41665 9.13573C6.41665 10.2657 7.34999 11.1816 8.49999 11.1816C9.65082 11.1816 10.5833 10.2657 10.5833 9.13573C10.5833 8.00656 9.65082 7.09073 8.49999 7.09073Z" fill="#4D4D4D"/>
</svg>
