<svg width="61" height="61" viewBox="0 0 61 61" fill="none" xmlns="http://www.w3.org/2000/svg">
<g clip-path="url(#clip0_1216_800)">
<path d="M54.0718 37.6303C53.8654 37.1962 53.5415 36.8466 53.1522 36.604C53.3177 36.4107 53.441 36.1777 53.4982 35.9129C53.6834 35.0552 53.1287 34.2115 52.2594 34.0288L43.8592 32.263L42.1872 29.3955C43.2073 28.6354 43.1806 26.9278 42.6716 25.955C42.5732 25.7668 42.1853 25.4977 41.6588 25.2C40.8738 24.621 39.5129 24.2702 38.7655 21.7335C36.4198 20.9653 33.8113 22.1234 33.4103 25.5182C33.1072 28.0801 35.1054 29.2652 34.9739 33.7171C35.679 33.5997 36.402 33.5354 37.1404 33.5354C39.7227 33.5354 42.1293 34.2856 44.1541 35.5723L49.3748 36.6698L46.3156 37.2873C47.575 38.528 48.575 40.0233 49.2362 41.6852L50.4164 41.4469L55.7815 52.7288C56.2027 53.6149 57.0943 54.135 58.0249 54.1348C58.377 54.1348 58.7351 54.0603 59.0748 53.9029C60.313 53.3298 60.8459 51.8749 60.2649 50.6535L54.0718 37.6303ZM29.9179 18.7071C30.1963 22.7954 28.826 23.5058 27.7011 23.5049C26.5763 23.504 29.4106 25.495 31.9042 22.692C32.9463 21.5205 32.9517 19.6678 32.9593 17.997C32.5961 17.2653 32.3826 16.4474 32.3626 15.5808C32.341 14.6406 32.5493 13.7475 32.9346 12.9519C31.2724 13.5592 29.6651 14.9948 29.9179 18.7071Z" fill="#949494"/>
<path d="M40.703 20.1117C43.3139 18.7775 44.3343 15.6077 42.9821 13.0317C41.6299 10.4557 38.4171 9.44895 35.8061 10.7831C33.1952 12.1172 32.1748 15.287 33.527 17.8631C34.8793 20.4391 38.092 21.4458 40.703 20.1117Z" fill="#949494"/>
<path d="M31.3735 30.6046C31.2754 30.2572 30.9912 29.9912 30.6343 29.913L28.5157 29.4485C28.6288 29.8222 28.654 30.2191 28.5817 30.614C28.5296 30.8977 28.4294 31.1621 28.2925 31.4018L29.6249 31.6939L30.6344 35.2656C31.2122 34.9342 31.8178 34.6458 32.4474 34.4043L31.3735 30.6046ZM54.8483 55.161C54.8483 53.317 53.3331 51.8221 51.464 51.8221C49.595 51.8221 48.0799 53.317 48.0799 55.161C48.0799 57.0051 49.595 58.5 51.464 58.5C53.3331 58.5 54.8483 57.0051 54.8483 55.161ZM49.4776 55.161C49.4776 54.0787 50.367 53.2012 51.464 53.2012C52.5611 53.2012 53.4504 54.0787 53.4504 55.161C53.4504 56.2434 52.5611 57.1209 51.464 57.1209C50.367 57.1209 49.4776 56.2434 49.4776 55.161Z" fill="#949494"/>
<path d="M52.46 55.1611C52.46 54.6192 52.0131 54.1785 51.4639 54.1785C50.9147 54.1785 50.4681 54.6192 50.4681 55.1611C50.4681 55.7029 50.9147 56.1436 51.4639 56.1436C52.0131 56.1436 52.46 55.7029 52.46 55.1611ZM37.1404 34.2682C30.3757 34.2682 24.8918 39.6788 24.8918 46.3531C24.8918 53.0273 30.3757 58.4379 37.1404 58.4379C43.9051 58.4379 49.389 53.0273 49.389 46.3531C49.389 39.6788 43.9051 34.2682 37.1404 34.2682ZM38.4404 46.3531C38.4404 47.0614 37.8584 47.6357 37.1404 47.6357C36.4224 47.6357 35.8404 47.0614 35.8404 46.3531C35.8404 45.6447 36.4224 45.0704 37.1404 45.0704C37.8584 45.0704 38.4404 45.6447 38.4404 46.3531ZM37.6508 48.2322L41.5893 54.9627C40.3959 55.5654 39.0631 55.9359 37.6508 56.0078V48.2322ZM36.63 56.0078C35.2176 55.9359 33.8848 55.5654 32.6915 54.9627L36.63 48.2323V56.0078ZM35.2357 46.8566L28.414 50.7424C27.8032 49.5651 27.4276 48.25 27.3548 46.8566H35.2357ZM27.3548 45.8495C27.4276 44.456 27.8032 43.141 28.414 41.9637L35.2357 45.8495H27.3548ZM37.6508 36.6983C39.0631 36.7702 40.3959 37.1407 41.5893 37.7434L37.6508 44.4739V36.6983ZM42.4725 38.2482C43.6227 38.9873 44.606 39.9574 45.3551 41.0923L38.5347 44.9774L42.4725 38.2482ZM36.63 36.6983V44.4738L32.6915 37.7434C33.8848 37.1407 35.2177 36.7702 36.63 36.6983ZM31.8083 38.2482L35.7461 44.9774L28.9256 41.0923C29.6748 39.9575 30.6581 38.9873 31.8083 38.2482ZM28.9256 51.6138L35.7461 47.7287L31.8083 54.458C30.658 53.7188 29.6748 52.7487 28.9256 51.6138ZM42.4725 54.458L38.5347 47.7287L45.3552 51.6138C44.606 52.7487 43.6227 53.7188 42.4725 54.458ZM39.0451 46.8566H46.926C46.8532 48.25 46.4776 49.5651 45.8667 50.7424L39.0451 46.8566ZM46.926 45.8495H39.0451L45.8667 41.9637C46.4776 43.141 46.8532 44.456 46.926 45.8495ZM7.14278 44.9427L1.05155 53.6146C0.0777445 55.0008 0.427416 56.9034 1.83239 57.8642C2.37021 58.2318 2.98441 58.4083 3.59285 58.4083C4.57367 58.4083 5.53854 57.9494 6.13948 57.0937L12.8253 47.5755C13.211 47.0265 13.4038 46.3677 13.3736 45.7004L13.2282 42.4709L6.72442 35.6449L7.14278 44.9427Z" fill="#949494"/>
<path d="M12.8244 29.1701L8.92989 19.7267C8.67333 19.1041 8.67766 18.42 8.94222 17.8007C9.20701 17.1813 9.70033 16.7007 10.3313 16.4474C10.6391 16.3239 10.9622 16.2613 11.292 16.2613C12.3347 16.2613 13.2621 16.8771 13.6551 17.8299L14.9801 21.0428C15.0761 20.5765 15.1685 20.1287 15.2528 19.704C15.9633 17.273 15.0337 14.3627 12.9202 13.8426C10.8062 13.323 7.74186 14.4553 6.49502 18.0327C4.81001 22.9612 4.44776 26.1697 5.08812 31.5971C5.32341 32.7914 5.73982 33.6588 6.2682 34.2891C6.35645 34.4153 6.45174 34.5381 6.56129 34.6533L15.3329 43.8593L17.6575 55.934C17.9395 57.3986 19.2376 58.4188 20.695 58.4187C20.8865 58.4187 21.081 58.401 21.2761 58.3644C22.9556 58.0497 24.0583 56.4513 23.7393 54.7943L21.2464 41.8457C21.1366 41.275 20.8641 40.747 20.4607 40.3239L13.954 33.4949C13.9741 33.1302 13.9704 32.7122 13.9417 32.2284C13.8577 31.6101 13.8159 30.9755 13.8014 30.3337C13.3696 30.0585 13.0256 29.658 12.8244 29.1701Z" fill="#949494"/>
<path d="M26.4246 28.2426L16.6113 26.4898L13.1274 18.0416C12.7153 17.042 11.5599 16.561 10.5459 16.9679C9.53245 17.3747 9.0452 18.515 9.45749 19.5149L13.3518 28.9583C13.6074 29.578 14.1665 30.0257 14.8339 30.1449L25.719 32.089C25.8382 32.1104 25.957 32.1207 26.074 32.1207C27.0137 32.1207 27.8478 31.4583 28.0212 30.5139C28.216 29.4518 27.5012 28.4349 26.4246 28.2426Z" fill="#949494"/>
<path d="M17.0706 13.4941C20.1477 13.4941 22.6421 11.033 22.6421 7.99704C22.6421 4.96111 20.1477 2.5 17.0706 2.5C13.9935 2.5 11.499 4.96111 11.499 7.99704C11.499 11.033 13.9935 13.4941 17.0706 13.4941Z" fill="#949494"/>
</g>
<defs>
<clipPath id="clip0_1216_800">
<rect width="60" height="60" fill="white" transform="translate(0.5 0.5)"/>
</clipPath>
</defs>
</svg>
