<svg width="61" height="61" viewBox="0 0 61 61" fill="none" xmlns="http://www.w3.org/2000/svg">
<g clip-path="url(#clip0_1216_1584)">
<path d="M60.3631 35.6527C59.4792 34.7357 58.3988 33.9152 57.2693 33.2395C56.9746 33.0947 56.68 32.9017 56.3853 32.7569C56.238 32.6603 56.0907 32.6121 55.9433 32.5638L55.5014 32.3708C55.354 32.3225 55.2067 32.226 55.0103 32.1777L54.5192 31.9846C54.2246 31.8881 53.8808 31.7433 53.537 31.6468C52.2111 31.2607 50.8852 31.0194 49.5593 30.8746C49.2155 30.8263 48.8717 30.8263 48.528 30.8263C48.1842 30.8263 47.8405 30.7781 47.4967 30.7781H46.4654C46.1217 30.7781 45.7779 30.8263 45.4833 30.8263C44.1573 30.9228 42.8314 31.0676 41.5546 31.309C41.2108 31.3572 40.9162 31.4537 40.6215 31.502C40.3269 31.5503 39.9831 31.6468 39.6885 31.6951C39.0501 31.8399 38.4608 31.9847 37.8224 32.1294C35.416 32.7569 33.0588 33.4326 30.849 33.9635C30.5543 34.06 30.3088 34.1082 30.0141 34.1565L29.5722 34.253L29.1793 34.3496C28.6391 34.4461 28.0989 34.5426 27.5096 34.6391L26.6748 34.7357L25.889 34.8322H25.4962L25.1033 34.9287L24.7104 34.977H24.2684L23.4336 35.0253H20.8309C19.7014 34.977 18.5228 34.8805 17.3442 34.7839C14.987 34.5909 12.6298 34.2048 10.2235 33.8669L6.58944 33.2878C5.36173 33.0947 4.13402 32.9499 2.8572 32.8534C2.61166 32.8534 2.41523 32.9499 2.2679 33.143C2.07147 33.4326 2.16968 33.8187 2.46433 34.0117C3.54472 34.6391 4.6251 35.2666 5.7546 35.7975C6.88409 36.3766 8.01358 36.9075 9.19218 37.3902C11.5003 38.3554 13.9066 39.2242 16.4602 39.8516C17.737 40.1895 19.0139 40.4308 20.2907 40.6238L21.2728 40.7686C21.4202 40.7686 21.6166 40.8169 21.7639 40.8169L23.2372 40.9617L24.2193 41.0099H24.7104C24.8578 41.0099 25.0542 41.0099 25.2506 41.0099H26.2819C26.6257 41.0099 26.9694 40.9617 27.3132 40.9617L28.3444 40.8652C29.032 40.7686 29.6704 40.6721 30.3579 40.5756L31.3401 40.3825C31.6838 40.3343 31.9785 40.2377 32.3222 40.1895C37.3804 38.8381 41.8492 36.8593 46.2199 35.894C47.3494 35.6527 48.4298 35.4596 49.5593 35.3148C50.6888 35.17 51.8182 35.1218 52.8986 35.17C54.0281 35.2183 55.1576 35.3148 56.2871 35.5562C57.4166 35.7975 58.5461 36.1353 59.7247 36.5214C59.9211 36.5697 60.1176 36.5697 60.2649 36.4249C60.5595 36.1836 60.5595 35.8457 60.3631 35.6527ZM54.5683 39.2725C50.8852 39.7551 47.4476 41.1547 44.01 43.6162C43.5189 43.954 43.0278 44.3401 42.4877 44.7262C39.7867 46.6568 37.0366 48.6839 34.1883 50.4696C32.0276 51.821 29.7195 53.1241 27.1658 53.6067C27.8534 53.8963 28.6391 54.1859 29.4248 54.4272C33.2553 55.6821 36.6929 55.8269 39.934 54.9099C42.5859 54.1859 44.7466 52.5449 46.711 50.904C49.1664 48.8286 51.2781 46.3189 53.2915 43.9058L53.7826 43.3266C55.4032 41.3961 57.3675 40.0447 59.6265 39.3207C58.055 39.0311 56.3853 39.0311 54.5683 39.2725ZM32.4204 46.2224C32.9606 45.6432 33.4026 45.1123 33.8446 44.5332C31.4874 45.3054 29.032 45.3054 26.6257 45.1606C23.4336 44.9676 20.2416 44.5814 17.0986 44.1953C16.5093 44.1471 15.92 44.0505 15.3798 44.0023C11.4512 43.5196 7.91536 43.954 4.67421 45.2571C3.10274 45.8846 1.72771 46.6568 0.5 47.5738C2.70988 47.1394 4.91975 47.3807 7.17874 48.2012L7.86626 48.4425C10.6654 49.5043 13.5628 50.5661 16.5584 51.1453C18.9156 51.6279 21.4693 51.9658 23.9738 51.3866C27.1167 50.6627 29.8668 48.9734 32.4204 46.2224Z" fill="#949494"/>
<path d="M12.6298 18.6156L14.9379 17.409V31.502C15.8218 31.5985 16.7058 31.6951 17.5897 31.7916C18.7192 31.8881 19.8487 31.9846 20.88 32.0329L22.1077 32.0812H23.2863L25.4471 31.9846L26.2328 31.8881L27.1168 31.7433C27.5587 31.6468 28.0007 31.5985 28.3936 31.502L29.2284 31.309C29.3266 31.309 29.4249 31.2607 29.5231 31.2607C29.6704 31.2124 29.8177 31.2124 29.965 31.1642H30.0142C31.291 30.8746 32.5678 30.5367 33.9428 30.1506C34.925 29.9093 35.9072 29.6197 36.9384 29.3784C37.5277 29.2336 38.2152 29.0406 38.8537 28.8958C39.1483 28.8475 39.5412 28.751 39.8849 28.6545L40.1796 28.6062C40.4251 28.5579 40.6707 28.5097 40.9162 28.4614C42.2912 28.2201 43.7645 28.027 45.1886 27.9305H45.5324C45.6797 27.9305 45.827 27.9305 45.9253 27.9305V17.409L48.2334 18.6156C48.528 18.8087 48.9209 18.9052 49.2646 18.9052C49.8539 18.9052 50.3941 18.6156 50.787 18.1813C51.0816 17.7952 51.1799 17.3125 51.1307 16.8299C51.0325 16.3472 50.787 15.9129 50.3941 15.6233L50.345 15.575L31.5365 5.82578C30.8981 5.39141 30.1124 5.39141 29.474 5.82578L10.5672 15.575L10.5181 15.6233C10.1253 15.9129 9.87972 16.3472 9.7815 16.8299C9.73239 17.3125 9.83061 17.7952 10.1253 18.1813C10.7146 18.9535 11.8441 19.1465 12.6298 18.6156Z" fill="#949494"/>
</g>
<defs>
<clipPath id="clip0_1216_1584">
<rect width="60" height="60" fill="white" transform="translate(0.5 0.5)"/>
</clipPath>
</defs>
</svg>
