<svg width="61" height="61" viewBox="0 0 61 61" fill="none" xmlns="http://www.w3.org/2000/svg">
<path d="M45.3481 29.0547L45.7778 36.6667C45.8414 37.7747 45.1889 38.8025 43.8203 39.75C42.4517 40.6975 40.5817 41.4483 38.2105 42.0023C35.8393 42.5563 33.2691 42.8333 30.5 42.8333C27.7309 42.8333 25.1607 42.5563 22.7895 42.0023C20.4182 41.4483 18.5483 40.6975 17.1797 39.75C15.8111 38.8025 15.1586 37.7747 15.2222 36.6667L15.6519 29.0547L29.3542 33.4147C29.7043 33.5271 30.0862 33.5833 30.5 33.5833C30.9138 33.5833 31.2957 33.5271 31.6458 33.4147L45.3481 29.0547ZM58 21.25C58 21.6194 57.8249 21.8683 57.4748 21.9968L30.7387 30.476C30.6751 30.492 30.5955 30.5001 30.5 30.5001C30.4045 30.5001 30.3249 30.492 30.2613 30.476L14.6971 25.5137C14.0127 26.0597 13.4478 26.955 13.0022 28.1996C12.5566 29.4442 12.286 30.8774 12.1905 32.4994C13.1931 33.0775 13.6944 33.9527 13.6944 35.125C13.6944 36.2331 13.2329 37.0923 12.3099 37.7025L13.6944 48.1328C13.7262 48.3576 13.6626 48.5584 13.5034 48.735C13.3602 48.9117 13.1692 49 12.9305 49H8.34722C8.10851 49 7.91755 48.9117 7.77432 48.735C7.61517 48.5584 7.55151 48.3576 7.58332 48.1328L8.96787 37.7025C8.04486 37.0923 7.58335 36.2331 7.58335 35.125C7.58335 33.9527 8.10056 33.0614 9.13499 32.4512C9.31003 29.127 10.0898 26.4772 11.4744 24.502L3.52517 21.9968C3.17506 21.8683 3 21.6194 3 21.25C3 20.8807 3.17506 20.6317 3.52517 20.5033L30.2613 12.0241C30.3249 12.008 30.4045 12 30.5 12C30.5955 12 30.6751 12.008 30.7387 12.0241L57.4748 20.5033C57.8249 20.6317 58 20.8807 58 21.25Z" fill="#949494"/>
</svg>
