<svg width="61" height="61" viewBox="0 0 61 61" fill="none" xmlns="http://www.w3.org/2000/svg">
<path d="M46.0361 47.5769C51.3859 39.6669 48.433 28.2413 40.1851 23.4953C40.1038 23.4215 40.0076 23.3647 39.9025 23.3283C38.6264 22.5858 37.2615 21.9956 35.8378 21.5706C40.6772 19.8128 41.3607 13.7397 41.1967 12.2016C41.1967 11.9685 41.1007 11.745 40.9298 11.5801C40.7588 11.4153 40.527 11.3227 40.2853 11.3227C39.8843 11.1909 33.769 11.4721 31.5361 14.8383C31.5361 13.5287 31.1989 9.97802 28.8019 7.64018C25.8491 4.79258 21.0188 5.00351 20.8183 5.00351C20.5845 5.0148 20.3643 5.11235 20.2031 5.27597C20.0419 5.43958 19.9522 5.65672 19.9525 5.8824C19.8249 10.7163 22.395 15.8402 29.5857 16.1918V20.8323C26.0132 21.0047 22.5731 22.1911 19.6973 24.2424C19.5906 24.2744 19.4978 24.3392 19.433 24.427C16.9188 26.2756 14.9465 28.7231 13.7098 31.5291C12.473 34.335 12.0144 37.403 12.3789 40.4315C13.5455 52.1735 27.608 59.6792 38.5537 54.1422C38.6554 54.1195 38.7514 54.0777 38.8362 54.0191C41.6736 52.6059 44.0799 50.5036 45.8174 47.9197C45.9168 47.8233 45.9917 47.7059 46.0361 47.5769ZM25.6121 11.7094L28.2551 14.2494C23.9078 13.6606 21.9575 10.3296 21.8117 6.79645C25.4572 6.92828 28.9295 8.82668 29.5493 13.0102L26.9063 10.4614C26.7347 10.2959 26.5019 10.2029 26.2592 10.2029C26.0165 10.2029 25.7837 10.2959 25.6121 10.4614C25.4405 10.6269 25.3441 10.8514 25.3441 11.0854C25.3441 11.3195 25.4405 11.5439 25.6121 11.7094ZM33.6323 15.225C35.3365 13.5815 37.9795 13.1948 39.3557 13.1069C39.2008 16.6224 37.2504 19.971 32.9123 20.5598L35.5462 18.0111C35.6416 17.9323 35.719 17.8353 35.7737 17.7263C35.8284 17.6172 35.8592 17.4985 35.864 17.3774C35.8689 17.2564 35.8477 17.1357 35.8019 17.0229C35.7561 16.9101 35.6866 16.8077 35.5978 16.722C35.509 16.6364 35.4027 16.5694 35.2858 16.5252C35.1688 16.481 35.0437 16.4606 34.9182 16.4653C34.7926 16.47 34.6695 16.4996 34.5564 16.5524C34.4433 16.6051 34.3428 16.6798 34.2611 16.7718L31.6181 19.3206C31.8569 17.7992 32.5578 16.3802 33.6323 15.2426V15.225ZM38.6175 52.1383C36.6033 49.7214 35.3821 44.4481 31.4723 42.8045C30.4151 42.4442 29.6495 42.6287 27.4804 43.1737C24.7463 43.8592 22.2947 44.4305 22.2036 44.2371C22.1124 44.0438 21.9757 43.9998 21.8208 43.534C21.578 42.687 21.1314 41.9071 20.5175 41.2577C19.9036 40.6504 19.1966 40.1376 18.4213 39.7372C17.057 39.1747 15.5494 39.0186 14.0923 39.289C13.939 36.8138 14.395 34.3387 15.423 32.0658C16.4509 29.793 18.0217 27.7868 20.0071 26.2111C22.1945 28.3556 27.207 31.8448 30.2875 30.5264C31.5087 29.9288 31.8915 28.8566 32.3746 27.4855C32.8792 25.935 33.5673 24.4458 34.4252 23.0471C35.6901 23.3459 36.9139 23.7885 38.0707 24.3654C35.9198 26.4836 35.2545 30.0519 36.1294 31.2296C35.8925 31.5548 41.0326 35.3691 41.3061 35.7558C41.5795 36.1425 41.3881 36.6347 41.1056 37.4081C39.5198 40.7304 41.5977 44.8348 44.022 47.3923C42.6113 49.3466 40.7646 50.9713 38.6175 52.1471V52.1383Z" fill="#949494"/>
<path d="M10.784 38.4101C10.7779 33.6604 12.626 29.0826 15.9607 25.5871C16.1311 25.4146 16.2234 25.1839 16.2175 24.9457C16.2115 24.7076 16.1076 24.4814 15.9288 24.3171C15.7499 24.1528 15.5107 24.0637 15.2637 24.0695C15.0167 24.0752 14.7822 24.1754 14.6118 24.3479C7.1294 31.9327 7.1294 44.8172 14.6118 52.3844C14.6932 52.4698 14.7912 52.5389 14.9003 52.5878C15.0094 52.6367 15.1274 52.6644 15.2476 52.6693C15.3677 52.6742 15.4877 52.6562 15.6007 52.6164C15.7137 52.5765 15.8174 52.5156 15.906 52.4372C15.9945 52.3587 16.0662 52.2641 16.1169 52.1589C16.1676 52.0537 16.1963 51.94 16.2013 51.8241C16.2064 51.7082 16.1878 51.5925 16.1465 51.4835C16.1052 51.3746 16.042 51.2745 15.9607 51.1891C12.6343 47.7062 10.7867 43.1451 10.784 38.4101ZM46.3825 24.3479C46.2098 24.2103 45.9907 24.1389 45.7669 24.1473C45.5431 24.1556 45.3304 24.2431 45.1692 24.3931C45.0081 24.543 44.9098 24.745 44.8932 24.9603C44.8766 25.1757 44.9428 25.3894 45.0792 25.5607C51.9328 32.4952 51.9328 44.2811 45.0792 51.2067C44.9148 51.3792 44.8283 51.6076 44.8385 51.8416C44.8488 52.0757 44.955 52.2962 45.1339 52.4547C45.3128 52.6132 45.5496 52.6967 45.7923 52.6868C46.035 52.6769 46.2637 52.5745 46.428 52.402C53.8649 44.8348 53.8649 31.9502 46.3825 24.3479Z" fill="#949494"/>
</svg>
