<svg width="29" height="28" viewBox="0 0 29 28" fill="none" xmlns="http://www.w3.org/2000/svg">
<path d="M10.1146 0.767498C7.22611 1.74944 4.73507 3.6132 3.0074 6.08502C1.27972 8.55683 0.40646 11.5064 0.515889 14.5005C0.625317 17.4946 1.71167 20.3755 3.61536 22.7198C5.51906 25.0642 8.13977 26.7486 11.0925 27.5255C13.4864 28.1308 15.9945 28.1574 18.4012 27.603C20.5814 27.1231 22.5971 26.0965 24.2508 24.6239C25.972 23.0445 27.2213 21.0351 27.8645 18.812C28.5633 16.3944 28.6877 13.852 28.2281 11.38H14.7853V16.8444H22.5705C22.4149 17.716 22.0814 18.5478 21.5901 19.2901C21.0988 20.0324 20.4598 20.67 19.7111 21.1647C18.7606 21.7811 17.6889 22.1958 16.565 22.3819C15.4379 22.5874 14.2817 22.5874 13.1546 22.3819C12.0121 22.1507 10.9314 21.6887 9.98135 21.0252C8.45491 19.9664 7.30876 18.4621 6.70646 16.7271C6.09414 14.9596 6.09414 13.0435 6.70646 11.2759C7.13519 10.037 7.84394 8.90896 8.7798 7.976C9.85078 6.88874 11.2067 6.11156 12.6987 5.72974C14.1908 5.34791 15.7613 5.37618 17.238 5.81146C18.3917 6.15832 19.4467 6.76465 20.3187 7.58204C21.1965 6.72626 22.0728 5.86826 22.9476 5.00805C23.3993 4.54549 23.8917 4.10505 24.3366 3.63142C23.0053 2.4175 21.4427 1.47286 19.7383 0.851601C16.6343 -0.252825 13.2381 -0.282506 10.1146 0.767498Z" fill="white"/>
<path d="M10.1146 0.767498C13.2379 -0.283219 16.6341 -0.254319 19.7383 0.849389C21.443 1.47487 23.0049 2.42406 24.3344 3.64249C23.8827 4.11612 23.4061 4.55877 22.9454 5.01912C22.0691 5.87638 21.1935 6.73069 20.3187 7.58204C19.4467 6.76465 18.3917 6.15832 17.238 5.81146C15.7618 5.37466 14.1913 5.34475 12.6989 5.72501C11.2064 6.10528 9.84971 6.88103 8.77756 7.96715C7.84169 8.9001 7.13295 10.0281 6.70421 11.2671L2.02226 7.71484C3.69811 4.4582 6.59974 1.96712 10.1146 0.767498Z" fill="#E33629"/>
<path d="M0.780053 11.2339C1.03152 10.0117 1.44932 8.82808 2.02226 7.71484L6.70421 11.2759C6.0919 13.0435 6.0919 14.9596 6.70421 16.7271C5.14431 17.9075 3.58366 19.0938 2.02225 20.286C0.588417 17.4892 0.151122 14.3025 0.780053 11.2339Z" fill="#F8BD00"/>
<path d="M14.7853 11.3777H28.2281C28.6877 13.8498 28.5633 16.3922 27.8645 18.8098C27.2214 21.0329 25.972 23.0422 24.2508 24.6217C22.7399 23.4664 21.2221 22.32 19.7111 21.1647C20.4603 20.6695 21.0997 20.0312 21.591 19.2881C22.0823 18.545 22.4155 17.7123 22.5705 16.84H14.7853C14.783 15.0207 14.7853 13.1992 14.7853 11.3777Z" fill="#587DBD"/>
<path d="M2.01999 20.286C3.5814 19.1056 5.14205 17.9193 6.70195 16.7271C7.30545 18.4627 8.45323 19.9671 9.98135 21.0252C10.9343 21.6856 12.0174 22.1439 13.1614 22.3709C14.2885 22.5763 15.4447 22.5763 16.5718 22.3709C17.6957 22.1847 18.7674 21.7701 19.7179 21.1536C21.2289 22.3089 22.7466 23.4554 24.2576 24.6107C22.6041 26.0841 20.5884 27.1114 18.408 27.5919C16.0013 28.1463 13.4932 28.1197 11.0993 27.5144C9.20601 27.019 7.43751 26.1458 5.90469 24.9493C4.28244 23.6869 2.95737 22.0963 2.01999 20.286Z" fill="#319F43"/>
</svg>
