<svg width="34" height="34" viewBox="0 0 34 34" fill="none" xmlns="http://www.w3.org/2000/svg">
<rect width="34" height="34" rx="8" fill="#F9F9F9"/>
<path opacity="0.4" d="M16.7757 26.8374C14.4926 25.4273 12.3703 23.7645 10.4476 21.8796C9.0902 20.5338 8.05355 18.8905 7.41686 17.0753C6.27922 13.5352 7.6035 9.48948 11.3008 8.2884C13.2523 7.67553 15.3747 8.05175 17.0067 9.29983C18.6393 8.05315 20.7611 7.67705 22.7127 8.2884C26.41 9.48948 27.7431 13.5352 26.6055 17.0753C25.974 18.8888 24.9435 20.5319 23.5926 21.8796C21.6681 23.7625 19.546 25.4251 17.2645 26.8374L17.0156 27L16.7757 26.8374Z" fill="#4D4D4D"/>
<path d="M17.0109 27.0001L16.776 26.8375C14.4901 25.4275 12.3649 23.7648 10.439 21.8797C9.0752 20.5357 8.03238 18.8923 7.39052 17.0754C6.26177 13.5353 7.58605 9.48957 11.2834 8.28849C13.2349 7.67562 15.3853 8.05213 17.0109 9.31067V27.0001Z" fill="#4D4D4D"/>
<path d="M23.2304 14.9992C23.0296 14.9863 22.8425 14.8859 22.7131 14.7216C22.5836 14.5572 22.5232 14.3434 22.5459 14.1302C22.5677 13.4278 22.168 12.7885 21.5517 12.5398C21.1609 12.4331 20.9243 12.0099 21.022 11.5925C21.1148 11.1818 21.4993 10.9265 21.8858 11.0189C21.9346 11.027 21.9816 11.0447 22.0244 11.071C23.2601 11.5466 24.0601 12.8264 23.9965 14.2258C23.9944 14.4379 23.9117 14.64 23.7673 14.7858C23.6229 14.9316 23.4291 15.0087 23.2304 14.9992Z" fill="#4D4D4D"/>
</svg>
