<svg width="40" height="40" viewBox="0 0 40 40" fill="none" xmlns="http://www.w3.org/2000/svg">
<path d="M16.668 25.746V22.1679C16.668 21.2613 17.4053 20.5247 18.3185 20.519H21.6717C22.589 20.519 23.3326 21.2572 23.3326 22.1679V25.7356C23.3326 26.522 23.9717 27.1611 24.7638 27.1668H27.0515C28.1199 27.1695 29.1455 26.7501 29.902 26.001C30.6585 25.2519 31.0837 24.2347 31.0837 23.1739V13.0103C31.0836 12.1534 30.7011 11.3407 30.039 10.7909L22.2671 4.62014C20.9086 3.54081 18.9683 3.57567 17.6499 4.70311L10.0452 10.7909C9.35186 11.3245 8.93747 12.1397 8.91699 13.0103V23.1636C8.91699 25.3745 10.7223 27.1668 12.9492 27.1668H15.1847C15.566 27.1696 15.9327 27.0211 16.2034 26.7543C16.474 26.4876 16.6262 26.1246 16.6262 25.746H16.668Z" fill="#669640"/>
<rect x="10" y="33.5" width="20" height="5" rx="2.5" fill="#669640"/>
</svg>
