<svg width="61" height="61" viewBox="0 0 61 61" fill="none" xmlns="http://www.w3.org/2000/svg">
<path d="M53.738 13.9728C50.6346 16.5608 49.1569 17.7787 48.3441 18.3115C48.5658 19.5294 48.6397 20.7473 48.4919 21.7368C48.418 23.6397 47.4574 25.9994 46.423 28.8157C45.6841 30.6425 44.9452 32.5454 44.428 34.5245C44.2802 35.6662 43.3936 36.5796 42.2113 36.6558C42.1375 36.6558 42.0636 36.6558 42.0636 36.6558C41.3986 36.6558 40.8075 36.4274 40.2902 35.9707C39.773 35.4379 39.4775 34.7528 39.4775 33.9917C39.4036 32.6216 39.6991 31.632 40.2902 30.0336C40.438 29.5769 40.6597 29.044 40.8075 28.359L40.7336 28.2829L31.0542 35.8185C29.8719 36.5796 28.3203 36.2752 27.5814 35.0573C27.3597 34.6767 27.212 34.22 27.1381 33.7633C26.9164 33.7633 26.7686 33.8394 26.547 33.8394C25.6603 33.8394 24.6997 33.3827 24.1825 32.4693C23.5914 31.5559 23.5914 30.4142 24.0347 29.5769C23.5914 29.3485 23.1481 29.044 22.8525 28.5873C22.2614 27.5978 22.3353 26.3799 22.9264 25.5427C22.6309 25.3904 22.4092 25.086 22.1875 24.7815C21.8181 24.1725 21.6703 23.4875 21.892 22.8786C22.0398 22.3457 22.4092 21.889 22.8525 21.6607L35.7091 11.8416C37.113 10.9282 38.6647 10.4715 40.2164 10.5476L46.2013 6.13277C46.4969 5.90442 47.0141 5.98054 47.2358 6.28501C47.4574 6.66559 47.3835 7.1223 47.088 7.35065L42.2852 10.9282C44.0586 11.5371 45.758 12.6789 46.8663 14.5057C47.3097 15.1907 47.6791 15.9519 47.9008 16.7892C49.083 15.8758 51.2258 14.049 52.7774 12.8311C53.073 12.6027 53.5902 12.6027 53.8119 12.9833C54.1074 13.2878 54.0335 13.7445 53.738 13.9728ZM26.9164 37.3408C26.9903 37.1125 26.9903 36.8841 26.9164 36.6558C26.8425 36.1229 26.547 35.5901 26.1775 35.2095C25.7342 34.829 25.217 34.6767 24.6259 34.6767C24.4781 34.6767 24.4042 34.6767 24.2564 34.7528C24.1086 34.4484 23.9609 34.22 23.7392 33.9917C23.3698 33.6872 22.8525 33.4588 22.3353 33.535C22.1136 33.535 21.892 33.6111 21.7442 33.6872C21.6703 33.535 21.5225 33.3827 21.3748 33.3066C21.0053 33.0021 20.4881 32.8499 19.9709 32.926C19.5275 33.0021 19.1581 33.2305 18.9364 33.6111L11.6215 41.6034C10.8826 42.5168 10.5131 43.5824 10.4392 44.6481L7.18815 48.3778C6.8926 48.6823 6.96648 49.139 7.26204 49.4435C7.40982 49.5957 7.55759 49.6718 7.77926 49.6718C8.00092 49.6718 8.1487 49.5957 8.29648 49.4435L10.6609 46.7794C10.9565 47.9972 11.6215 49.0629 12.582 49.824C12.9515 50.1285 13.3209 50.3569 13.7642 50.5852C13.0253 51.3464 11.8431 52.5643 11.0304 53.4015C10.7348 53.706 10.7348 54.1627 11.0304 54.4672C11.1781 54.6194 11.3998 54.6955 11.5476 54.6955C11.7692 54.6955 11.917 54.6194 12.0648 54.4672C13.7642 52.7165 14.6509 51.727 15.1681 51.1941C15.8331 51.4225 16.4242 51.4986 17.0153 51.4986C17.0892 51.4986 17.237 51.4986 17.3109 51.4986C18.567 51.5747 20.1925 51.118 22.1136 50.5852C23.3698 50.2046 24.6259 49.9002 25.9559 49.5957C26.8425 49.5196 27.5075 48.9106 27.7292 48.0733C27.8031 47.5405 27.7292 46.9316 27.3597 46.4749C26.9903 46.0182 26.547 45.7137 26.0297 45.6376C25.0692 45.4854 24.3303 45.6376 23.222 45.8659C23.0742 45.8659 22.9264 45.9421 22.7786 45.9421L27.877 40.3855C28.542 39.5482 28.3942 38.3303 27.5814 37.5692C27.3597 37.4931 27.1381 37.4169 26.9164 37.3408ZM26.7686 39.4721L21.1531 45.6376C20.8575 46.0182 20.7837 46.551 21.0053 47.0077C21.227 47.4644 21.7442 47.7689 22.2614 47.6928H22.3353C22.7786 47.6166 23.222 47.5405 23.5175 47.3883C24.4781 47.1599 25.0692 47.0077 25.7342 47.1599C25.882 47.1599 26.0297 47.2361 26.1036 47.3883C26.1775 47.4644 26.2514 47.6166 26.1775 47.7689C26.1775 47.9211 26.0297 48.0733 25.8081 48.0733C25.7342 48.0733 25.7342 48.0733 25.6603 48.0733C24.2564 48.3017 22.8525 48.7584 21.6703 49.0629C19.9709 49.5196 18.3453 49.9763 17.3109 49.9002C17.237 49.9002 17.237 49.9002 17.1631 49.9002C16.1287 49.9763 14.4292 49.3673 13.4687 48.53C12.582 47.7689 11.9909 46.7032 11.8431 45.5615C11.7692 44.572 12.0648 43.4302 12.7298 42.5929L20.0448 34.5245C20.0448 34.5245 20.1187 34.4484 20.1187 34.3722C20.1187 34.3722 20.1187 34.3723 20.1925 34.2961C20.2664 34.2961 20.3403 34.2961 20.4142 34.3722C20.562 34.4484 20.562 34.6767 20.4881 34.7528L17.5326 38.4826C17.237 38.787 17.3109 39.3199 17.6064 39.5482C17.902 39.8527 18.4192 39.7766 18.6409 39.4721L21.5964 35.7424L22.1136 35.1334C22.1875 35.0573 22.3353 34.9812 22.4092 34.9812C22.557 34.9812 22.6309 34.9812 22.7786 35.1334C23.0003 35.2857 23.0003 35.5901 22.9264 35.7424L18.8625 39.9288C18.567 40.2333 18.567 40.69 18.8625 40.9944C19.0103 41.1467 19.232 41.2228 19.3798 41.2228C19.6014 41.2228 19.7492 41.1467 19.897 40.9944L23.5914 37.1886C23.6653 37.1125 23.7392 37.1125 23.8131 36.9602L24.0347 36.7319L24.3303 36.3513C24.4042 36.1991 24.552 36.1229 24.6997 36.1229C24.8475 36.1229 25.0692 36.1991 25.217 36.2752C25.3647 36.4274 25.4386 36.5796 25.4386 36.7319C25.4386 36.8841 25.4386 37.0364 25.3647 37.1125L20.7837 41.984C20.4881 42.2884 20.4881 42.7451 20.7837 43.0496C20.9314 43.2018 21.0792 43.278 21.3009 43.278C21.5225 43.278 21.6703 43.2018 21.8181 43.0496L25.4386 39.2437L25.882 38.8632C25.9559 38.8632 25.9559 38.787 25.9559 38.787C26.1036 38.6348 26.3992 38.5587 26.6208 38.787C26.8425 39.0154 26.9164 39.3199 26.7686 39.4721ZM50.8563 43.2018C50.4869 40.7661 48.418 38.9393 45.9797 38.9393C44.5019 38.9393 43.098 39.6243 42.2113 40.8422C41.3247 39.7005 39.9208 38.9393 38.3691 38.9393C35.9308 38.9393 33.8619 40.7661 33.4925 43.2018C33.4925 43.278 33.4925 43.278 33.4925 43.3541C32.9753 46.1704 35.7091 49.9002 41.6941 54.8478C41.6941 54.8478 41.768 54.8478 41.768 54.9239C41.8419 54.9239 41.8419 55 41.9158 55C41.9897 55 42.0636 55 42.1375 55C42.2113 55 42.2852 55 42.3591 54.9239C42.433 54.9239 42.433 54.8478 42.5069 54.8478C42.5069 54.8478 42.5808 54.8478 42.5808 54.7717C48.5658 49.824 51.2996 46.0943 50.7824 43.278C50.8563 43.278 50.8563 43.2018 50.8563 43.2018ZM42.2113 53.2493C35.7091 47.845 34.8225 44.9525 34.9703 43.7347C34.9703 43.6585 34.9703 43.5824 35.0442 43.5824C35.2658 41.8317 36.7436 40.4616 38.443 40.4616C39.773 40.4616 41.0291 41.2989 41.5463 42.5168C41.6941 42.8213 41.9158 42.9735 42.2113 42.9735C42.5069 42.9735 42.8025 42.8213 42.8763 42.5168C43.3936 41.2228 44.6497 40.4616 45.9797 40.4616C47.6791 40.4616 49.1569 41.8317 49.3785 43.5824C49.3785 43.6585 49.3785 43.7347 49.4524 43.7347C49.5263 44.9525 48.7135 47.845 42.2113 53.2493ZM16.3503 23.3353L16.2764 23.4114C16.2026 23.4114 16.2026 23.4875 16.1287 23.4875C16.0548 23.4875 15.9809 23.5636 15.907 23.5636C15.8331 23.5636 15.7592 23.5636 15.6853 23.4875C15.6114 23.4875 15.6114 23.4875 15.5376 23.4114L15.4637 23.3353C10.4392 19.2249 8.22259 16.1041 8.59203 13.7445C8.59203 13.6684 8.59203 13.6684 8.59203 13.5923C8.88759 11.5371 10.6609 9.93863 12.7298 9.93863C13.912 9.93863 15.0942 10.4715 15.8331 11.3849C16.6459 10.4715 17.7542 9.93863 18.9364 9.93863C21.0053 9.93863 22.7048 11.461 23.0742 13.5161C23.0742 13.5923 23.0742 13.5923 23.0742 13.6684C23.5914 16.1041 21.3748 19.2249 16.3503 23.3353Z" fill="#949494"/>
</svg>
