<svg width="61" height="61" viewBox="0 0 61 61" fill="none" xmlns="http://www.w3.org/2000/svg">
<path d="M48.2273 6C48.7074 6 49.1229 6.17318 49.4737 6.51953C49.8246 6.86589 50 7.27604 50 7.75V53.25C50 53.724 49.8246 54.1341 49.4737 54.4805C49.1229 54.8268 48.7074 55 48.2273 55H12.7727C12.2926 55 11.8771 54.8268 11.5263 54.4805C11.1754 54.1341 11 53.724 11 53.25V7.75C11 7.27604 11.1754 6.86589 11.5263 6.51953C11.8771 6.17318 12.2926 6 12.7727 6H48.2273ZM25.1818 13.875V15.625C25.1818 15.8802 25.2649 16.0898 25.4311 16.2539C25.5973 16.418 25.8097 16.5 26.0682 16.5H27.8409C28.0994 16.5 28.3118 16.418 28.478 16.2539C28.6442 16.0898 28.7273 15.8802 28.7273 15.625V13.875C28.7273 13.6198 28.6442 13.4102 28.478 13.2461C28.3118 13.082 28.0994 13 27.8409 13H26.0682C25.8097 13 25.5973 13.082 25.4311 13.2461C25.2649 13.4102 25.1818 13.6198 25.1818 13.875ZM25.1818 20.875V22.625C25.1818 22.8802 25.2649 23.0898 25.4311 23.2539C25.5973 23.418 25.8097 23.5 26.0682 23.5H27.8409C28.0994 23.5 28.3118 23.418 28.478 23.2539C28.6442 23.0898 28.7273 22.8802 28.7273 22.625V20.875C28.7273 20.6198 28.6442 20.4102 28.478 20.2461C28.3118 20.082 28.0994 20 27.8409 20H26.0682C25.8097 20 25.5973 20.082 25.4311 20.2461C25.2649 20.4102 25.1818 20.6198 25.1818 20.875ZM25.1818 27.875V29.625C25.1818 29.8802 25.2649 30.0898 25.4311 30.2539C25.5973 30.418 25.8097 30.5 26.0682 30.5H27.8409C28.0994 30.5 28.3118 30.418 28.478 30.2539C28.6442 30.0898 28.7273 29.8802 28.7273 29.625V27.875C28.7273 27.6198 28.6442 27.4102 28.478 27.2461C28.3118 27.082 28.0994 27 27.8409 27H26.0682C25.8097 27 25.5973 27.082 25.4311 27.2461C25.2649 27.4102 25.1818 27.6198 25.1818 27.875ZM25.1818 34.875V36.625C25.1818 36.8802 25.2649 37.0898 25.4311 37.2539C25.5973 37.418 25.8097 37.5 26.0682 37.5H27.8409C28.0994 37.5 28.3118 37.418 28.478 37.2539C28.6442 37.0898 28.7273 36.8802 28.7273 36.625V34.875C28.7273 34.6198 28.6442 34.4102 28.478 34.2461C28.3118 34.082 28.0994 34 27.8409 34H26.0682C25.8097 34 25.5973 34.082 25.4311 34.2461C25.2649 34.4102 25.1818 34.6198 25.1818 34.875ZM21.6364 43.625V41.875C21.6364 41.6198 21.5533 41.4102 21.3871 41.2461C21.2209 41.082 21.0085 41 20.75 41H18.9773C18.7188 41 18.5064 41.082 18.3402 41.2461C18.174 41.4102 18.0909 41.6198 18.0909 41.875V43.625C18.0909 43.8802 18.174 44.0898 18.3402 44.2539C18.5064 44.418 18.7188 44.5 18.9773 44.5H20.75C21.0085 44.5 21.2209 44.418 21.3871 44.2539C21.5533 44.0898 21.6364 43.8802 21.6364 43.625ZM21.6364 36.625V34.875C21.6364 34.6198 21.5533 34.4102 21.3871 34.2461C21.2209 34.082 21.0085 34 20.75 34H18.9773C18.7188 34 18.5064 34.082 18.3402 34.2461C18.174 34.4102 18.0909 34.6198 18.0909 34.875V36.625C18.0909 36.8802 18.174 37.0898 18.3402 37.2539C18.5064 37.418 18.7188 37.5 18.9773 37.5H20.75C21.0085 37.5 21.2209 37.418 21.3871 37.2539C21.5533 37.0898 21.6364 36.8802 21.6364 36.625ZM21.6364 29.625V27.875C21.6364 27.6198 21.5533 27.4102 21.3871 27.2461C21.2209 27.082 21.0085 27 20.75 27H18.9773C18.7188 27 18.5064 27.082 18.3402 27.2461C18.174 27.4102 18.0909 27.6198 18.0909 27.875V29.625C18.0909 29.8802 18.174 30.0898 18.3402 30.2539C18.5064 30.418 18.7188 30.5 18.9773 30.5H20.75C21.0085 30.5 21.2209 30.418 21.3871 30.2539C21.5533 30.0898 21.6364 29.8802 21.6364 29.625ZM21.6364 22.625V20.875C21.6364 20.6198 21.5533 20.4102 21.3871 20.2461C21.2209 20.082 21.0085 20 20.75 20H18.9773C18.7188 20 18.5064 20.082 18.3402 20.2461C18.174 20.4102 18.0909 20.6198 18.0909 20.875V22.625C18.0909 22.8802 18.174 23.0898 18.3402 23.2539C18.5064 23.418 18.7188 23.5 18.9773 23.5H20.75C21.0085 23.5 21.2209 23.418 21.3871 23.2539C21.5533 23.0898 21.6364 22.8802 21.6364 22.625ZM21.6364 15.625V13.875C21.6364 13.6198 21.5533 13.4102 21.3871 13.2461C21.2209 13.082 21.0085 13 20.75 13H18.9773C18.7188 13 18.5064 13.082 18.3402 13.2461C18.174 13.4102 18.0909 13.6198 18.0909 13.875V15.625C18.0909 15.8802 18.174 16.0898 18.3402 16.2539C18.5064 16.418 18.7188 16.5 18.9773 16.5H20.75C21.0085 16.5 21.2209 16.418 21.3871 16.2539C21.5533 16.0898 21.6364 15.8802 21.6364 15.625ZM35.8182 50.625V45.375C35.8182 45.1198 35.7351 44.9102 35.5689 44.7461C35.4027 44.582 35.1903 44.5 34.9318 44.5H26.0682C25.8097 44.5 25.5973 44.582 25.4311 44.7461C25.2649 44.9102 25.1818 45.1198 25.1818 45.375V50.625C25.1818 50.8802 25.2649 51.0898 25.4311 51.2539C25.5973 51.418 25.8097 51.5 26.0682 51.5H34.9318C35.1903 51.5 35.4027 51.418 35.5689 51.2539C35.7351 51.0898 35.8182 50.8802 35.8182 50.625ZM35.8182 36.625V34.875C35.8182 34.6198 35.7351 34.4102 35.5689 34.2461C35.4027 34.082 35.1903 34 34.9318 34H33.1591C32.9006 34 32.6882 34.082 32.522 34.2461C32.3558 34.4102 32.2727 34.6198 32.2727 34.875V36.625C32.2727 36.8802 32.3558 37.0898 32.522 37.2539C32.6882 37.418 32.9006 37.5 33.1591 37.5H34.9318C35.1903 37.5 35.4027 37.418 35.5689 37.2539C35.7351 37.0898 35.8182 36.8802 35.8182 36.625ZM35.8182 29.625V27.875C35.8182 27.6198 35.7351 27.4102 35.5689 27.2461C35.4027 27.082 35.1903 27 34.9318 27H33.1591C32.9006 27 32.6882 27.082 32.522 27.2461C32.3558 27.4102 32.2727 27.6198 32.2727 27.875V29.625C32.2727 29.8802 32.3558 30.0898 32.522 30.2539C32.6882 30.418 32.9006 30.5 33.1591 30.5H34.9318C35.1903 30.5 35.4027 30.418 35.5689 30.2539C35.7351 30.0898 35.8182 29.8802 35.8182 29.625ZM35.8182 22.625V20.875C35.8182 20.6198 35.7351 20.4102 35.5689 20.2461C35.4027 20.082 35.1903 20 34.9318 20H33.1591C32.9006 20 32.6882 20.082 32.522 20.2461C32.3558 20.4102 32.2727 20.6198 32.2727 20.875V22.625C32.2727 22.8802 32.3558 23.0898 32.522 23.2539C32.6882 23.418 32.9006 23.5 33.1591 23.5H34.9318C35.1903 23.5 35.4027 23.418 35.5689 23.2539C35.7351 23.0898 35.8182 22.8802 35.8182 22.625ZM35.8182 15.625V13.875C35.8182 13.6198 35.7351 13.4102 35.5689 13.2461C35.4027 13.082 35.1903 13 34.9318 13H33.1591C32.9006 13 32.6882 13.082 32.522 13.2461C32.3558 13.4102 32.2727 13.6198 32.2727 13.875V15.625C32.2727 15.8802 32.3558 16.0898 32.522 16.2539C32.6882 16.418 32.9006 16.5 33.1591 16.5H34.9318C35.1903 16.5 35.4027 16.418 35.5689 16.2539C35.7351 16.0898 35.8182 15.8802 35.8182 15.625ZM42.9091 43.625V41.875C42.9091 41.6198 42.826 41.4102 42.6598 41.2461C42.4936 41.082 42.2812 41 42.0227 41H40.25C39.9915 41 39.7791 41.082 39.6129 41.2461C39.4467 41.4102 39.3636 41.6198 39.3636 41.875V43.625C39.3636 43.8802 39.4467 44.0898 39.6129 44.2539C39.7791 44.418 39.9915 44.5 40.25 44.5H42.0227C42.2812 44.5 42.4936 44.418 42.6598 44.2539C42.826 44.0898 42.9091 43.8802 42.9091 43.625ZM42.9091 36.625V34.875C42.9091 34.6198 42.826 34.4102 42.6598 34.2461C42.4936 34.082 42.2812 34 42.0227 34H40.25C39.9915 34 39.7791 34.082 39.6129 34.2461C39.4467 34.4102 39.3636 34.6198 39.3636 34.875V36.625C39.3636 36.8802 39.4467 37.0898 39.6129 37.2539C39.7791 37.418 39.9915 37.5 40.25 37.5H42.0227C42.2812 37.5 42.4936 37.418 42.6598 37.2539C42.826 37.0898 42.9091 36.8802 42.9091 36.625ZM42.9091 29.625V27.875C42.9091 27.6198 42.826 27.4102 42.6598 27.2461C42.4936 27.082 42.2812 27 42.0227 27H40.25C39.9915 27 39.7791 27.082 39.6129 27.2461C39.4467 27.4102 39.3636 27.6198 39.3636 27.875V29.625C39.3636 29.8802 39.4467 30.0898 39.6129 30.2539C39.7791 30.418 39.9915 30.5 40.25 30.5H42.0227C42.2812 30.5 42.4936 30.418 42.6598 30.2539C42.826 30.0898 42.9091 29.8802 42.9091 29.625ZM42.9091 22.625V20.875C42.9091 20.6198 42.826 20.4102 42.6598 20.2461C42.4936 20.082 42.2812 20 42.0227 20H40.25C39.9915 20 39.7791 20.082 39.6129 20.2461C39.4467 20.4102 39.3636 20.6198 39.3636 20.875V22.625C39.3636 22.8802 39.4467 23.0898 39.6129 23.2539C39.7791 23.418 39.9915 23.5 40.25 23.5H42.0227C42.2812 23.5 42.4936 23.418 42.6598 23.2539C42.826 23.0898 42.9091 22.8802 42.9091 22.625ZM42.9091 15.625V13.875C42.9091 13.6198 42.826 13.4102 42.6598 13.2461C42.4936 13.082 42.2812 13 42.0227 13H40.25C39.9915 13 39.7791 13.082 39.6129 13.2461C39.4467 13.4102 39.3636 13.6198 39.3636 13.875V15.625C39.3636 15.8802 39.4467 16.0898 39.6129 16.2539C39.7791 16.418 39.9915 16.5 40.25 16.5H42.0227C42.2812 16.5 42.4936 16.418 42.6598 16.2539C42.826 16.0898 42.9091 15.8802 42.9091 15.625Z" fill="#949494"/>
</svg>
