<svg width="119" height="28" viewBox="0 0 119 28" fill="none" xmlns="http://www.w3.org/2000/svg">
<path d="M0.86536 20.5482V19.741H5.77403V20.5482C5.77403 21.8193 6.67088 23.6807 9.07441 23.6807C11.9443 23.6807 12.2971 21.4458 12.2971 20.5482C12.2971 18.7771 12.0459 18.0663 10.8621 17.2289C10.2881 16.7952 9.3554 16.4217 8.2792 16.0482C6.12679 15.2711 0.859375 13.4398 0.859375 7.0482C0.859375 3.04217 4.40487 0 8.99668 0C14.013 0 17.0981 3.13252 17.0981 8.50602H12.1177C12.1177 5.62047 11.2208 4.31323 8.99668 4.31323C7.13125 4.31323 5.77403 5.42772 5.77403 7.0482C5.77403 10.7711 8.10581 11.3012 10.0729 12.0121C11.2567 12.3554 12.4764 12.8193 13.3733 13.3494C16.0279 14.9337 17.2416 17.2289 17.2416 20.5482C17.2416 24.3012 14.4076 28 9.06842 28C4.41084 28 0.859375 24.8012 0.859375 20.5482" fill="#4D4D4D"/>
<path d="M36.2785 20.6446H29.4685L27.7465 27.5663H22.2998L29.038 0.409635H36.7448L43.6265 27.5663H38.0363L36.2785 20.6446ZM35.3816 16.5181L32.8705 4.50601L30.3593 16.5181H35.3816Z" fill="#4D4D4D"/>
<path d="M57.8564 16.2048L55.3452 20.5482V27.5663H49.8985V0.403596H55.3452V11.4217L61.8324 0.403596H68.0325L61.2584 11.6446L67.9249 27.5663H61.6889L57.8564 16.2048Z" fill="#4D4D4D"/>
<path d="M91.2248 0.403596V27.5663H85.7062V15.8615H79.6077V27.5663H73.9816V0.403596H79.6077V11.6084H85.7062V0.403596H91.2248Z" fill="#4D4D4D"/>
<path d="M111.511 20.6446H104.701L102.979 27.5663H97.5325L104.271 0.409635H111.978L118.859 27.5663H113.269L111.511 20.6446ZM110.614 16.5181L108.103 4.50601L105.592 16.5181H110.614Z" fill="#4D4D4D"/>
</svg>
