<svg width="61" height="61" viewBox="0 0 61 61" fill="none" xmlns="http://www.w3.org/2000/svg">
<path d="M40.1293 43.1869C38.6281 43.0277 37.127 42.7095 35.6258 42.0731C35.3888 45.7326 35.4678 49.7104 35.8628 53.9269C36.0208 55.1202 36.9689 55.9954 38.1541 55.9954C39.5762 55.9954 40.5243 54.802 40.4453 53.4496C40.0503 49.8696 39.8922 46.3691 40.1293 43.1869ZM47.8721 42.1526C46.3709 42.7095 44.7908 43.1073 43.2106 43.1869C43.0526 46.5282 43.1316 50.1878 43.5266 53.9269C43.6846 55.1202 44.7117 56.0749 46.0549 55.9954C47.319 55.8363 48.1881 54.7225 48.1091 53.4496C47.6351 49.4718 47.556 45.6531 47.8721 42.1526ZM43.1316 35.4699C42.4205 37.061 40.8403 36.1064 33.8086 36.4246L33.0975 40.0842C38.4701 43.346 44.7908 43.4255 50.4003 40.0842L49.2152 34.0379C47.8721 34.8335 45.8969 35.4699 43.1316 35.4699ZM41.7884 14.0694C44.2377 14.0694 46.2919 12.0805 46.2919 9.53469C46.2919 7.06845 44.3167 5 41.7884 5C39.2602 5 37.285 6.9889 37.285 9.53469C37.285 12.0805 39.2602 14.0694 41.7884 14.0694ZM29.3841 29.1055L28.9891 29.7419C28.6731 30.3783 28.8311 31.1739 29.3841 31.5717V29.1055ZM19.5081 43.346H9.63207C9.23702 43.346 9 43.6642 9 43.9824V53.37C9 53.7678 9.31603 54.0065 9.63207 54.0065H19.5081C19.9031 54.0065 20.1402 53.6882 20.1402 53.37V44.062C20.1402 43.6642 19.8241 43.346 19.5081 43.346ZM16.1107 48.2784L15.3207 47.7215C15.2417 47.642 15.1626 47.7215 15.0836 47.7215L14.4516 48.358L13.8985 47.7215C13.8985 47.7215 13.8195 47.642 13.7405 47.642H13.6615L12.8714 48.1193V43.5051H16.1107V48.2784ZM31.7544 43.346H21.9574C21.5623 43.346 21.3253 43.6642 21.3253 43.9824V53.37C21.3253 53.7678 21.6413 54.0065 21.9574 54.0065H31.7544C32.1494 54.0065 32.3865 53.6882 32.3865 53.37V44.062C32.3865 43.6642 32.0704 43.346 31.7544 43.346ZM28.357 48.2784L27.5669 47.7215C27.4879 47.642 27.4089 47.7215 27.3299 47.7215L26.6979 48.358L26.1448 47.7215C26.1448 47.7215 26.0658 47.642 25.9868 47.642H25.9078L25.1177 48.1193V43.5051H28.357V48.2784ZM15.5577 42.7891H25.3547C25.7498 42.7891 25.9868 42.4709 25.9868 42.1526V32.6855C25.9868 32.2877 25.6707 32.049 25.3547 32.049H15.5577C15.1626 32.049 14.9256 32.3672 14.9256 32.6855V42.0731C14.9256 42.4709 15.2417 42.7891 15.5577 42.7891ZM18.955 36.9815V32.3672H22.1154V36.9815L21.3253 36.4246C21.2463 36.345 21.1673 36.4246 21.0883 36.4246L20.4562 37.061L19.9031 36.4246C19.9031 36.4246 19.8241 36.345 19.7451 36.345H19.6661L18.955 36.9815ZM33.1765 18.5245C33.1765 19.161 33.4136 19.7974 33.8876 20.3543C34.9147 21.5476 36.8109 21.7863 38.1541 21.0703C40.9194 19.5587 39.7342 15.6605 36.4159 15.6605C34.6777 15.5809 33.1765 16.8538 33.1765 18.5245ZM34.8357 19.5587C34.8357 19.2405 34.9937 19.0018 35.2308 18.7632C35.3098 18.6836 35.3888 18.6836 35.3888 18.6041C35.3098 18.6041 35.2308 18.445 35.2308 18.3654C35.2308 18.2063 35.3888 18.0472 35.5468 18.0472C35.7048 18.0472 35.8628 18.2063 35.8628 18.3654V18.445C35.9418 18.445 36.0208 18.445 36.0208 18.3654C36.1789 18.3654 36.3369 18.2858 36.4159 18.2858C36.6529 18.2858 36.8109 18.2858 37.0479 18.3654V18.2858C37.0479 18.1267 37.206 17.9676 37.364 17.9676C37.522 17.9676 37.68 18.1267 37.68 18.2858C37.68 18.445 37.601 18.5245 37.522 18.6041C37.759 18.7632 37.917 18.9223 37.996 19.0814C38.0751 19.2405 38.075 19.3996 38.075 19.5587C37.996 21.1499 34.8357 21.1499 34.8357 19.5587Z" fill="#949494"/>
<path d="M39.9713 17.7289C40.2873 17.4107 40.2873 16.9334 39.9713 16.456C39.6552 15.9787 39.1022 15.74 38.7071 15.9787C39.3392 16.3765 39.8133 17.0129 39.9713 17.7289ZM34.2037 15.8992C33.8086 15.6605 33.1766 15.8992 32.9395 16.3765C32.7025 16.7743 32.7025 17.3312 32.9395 17.6494C33.0975 17.0129 33.5716 16.3765 34.2037 15.8992ZM35.3888 19.7974C35.4678 19.7974 36.4159 20.593 37.443 19.7974H35.3888ZM38.2331 21.3885C37.68 21.6272 37.127 21.7863 36.4949 21.7863C36.3369 21.8659 35.3888 21.7863 34.2827 21.2294C33.8876 21.4681 33.2556 21.8659 32.8605 22.3432H40.0503C39.6552 21.8659 38.9442 21.3885 38.5491 21.2294C38.4701 21.309 38.3911 21.309 38.2331 21.3885ZM30.9643 35.3904H34.0456C42.0255 35.3108 41.7885 35.5495 42.1045 35.2313C41.3144 34.8335 40.7614 34.0379 40.7614 33.1628C40.7614 32.1286 41.3934 31.333 42.2625 31.0148V24.0139C42.2625 23.6956 42.0255 23.457 41.7094 23.457H30.9643C30.6483 23.457 30.4113 23.6956 30.4113 24.0139V34.8335C30.4113 35.1517 30.6483 35.3904 30.9643 35.3904Z" fill="#949494"/>
<path d="M47.24 16.297C44.6327 14.9445 42.1045 14.5467 39.5762 15.1036C40.0503 15.1832 40.4453 15.5014 40.7613 15.9787C41.2354 16.6947 41.1564 17.5698 40.6033 18.2063L40.4453 18.3654V18.5245C40.4453 19.3996 40.1293 20.2747 39.4972 20.9112C40.0503 21.309 40.6033 21.7863 40.9984 22.4228H41.7884C42.6575 22.4228 43.3686 23.1388 43.3686 24.0139V30.9352C45.1068 30.9352 47.161 30.5375 47.8721 29.1055C48.0301 28.8668 48.1091 28.5486 48.1091 28.2303L47.556 25.5254V22.1045C48.5831 24.173 49.5312 27.3552 48.5041 29.4237C48.4251 29.5032 48.4251 29.5828 48.3461 29.6623C47.556 30.9352 45.8179 31.5717 43.2896 31.6512C42.0255 31.8104 41.5514 32.3673 41.5514 33.1628C41.5514 33.9584 42.1835 34.6744 43.0526 34.6744C43.1316 34.6744 46.6079 34.8335 49.0572 33.1628C55.9309 29.0259 48.8202 16.7743 47.24 16.297Z" fill="#949494"/>
</svg>
