<svg width="61" height="61" viewBox="0 0 61 61" fill="none" xmlns="http://www.w3.org/2000/svg">
<path d="M35.3958 45.5089V23.6667H25.6042V45.5089C25.6042 46.0174 25.7878 46.4089 26.1549 46.6834C26.5221 46.958 26.9913 47.0952 27.5625 47.0952H33.4375C34.0087 47.0952 34.4779 46.958 34.8451 46.6834C35.2122 46.4089 35.3958 46.0174 35.3958 45.5089ZM21.4427 19.7619H27.4095L23.554 14.8504C23.0237 14.22 22.3199 13.9048 21.4427 13.9048C20.6267 13.9048 19.9332 14.1895 19.362 14.7589C18.7908 15.3284 18.5052 16.0198 18.5052 16.8333C18.5052 17.6468 18.7908 18.3383 19.362 18.9077C19.9332 19.4772 20.6267 19.7619 21.4427 19.7619ZM42.4948 16.8333C42.4948 16.0198 42.2092 15.3284 41.638 14.7589C41.0668 14.1895 40.3733 13.9048 39.5573 13.9048C38.6801 13.9048 37.9763 14.22 37.446 14.8504L33.6211 19.7619H39.5573C40.3733 19.7619 41.0668 19.4772 41.638 18.9077C42.2092 18.3383 42.4948 17.6468 42.4948 16.8333ZM54 24.6429V34.4048C54 34.6895 53.9082 34.9234 53.7246 35.1064C53.541 35.2894 53.3064 35.381 53.0208 35.381H50.0833V48.0714C50.0833 48.8849 49.7977 49.5764 49.2266 50.1458C48.6554 50.7153 47.9618 51 47.1458 51H13.8542C13.0382 51 12.3446 50.7153 11.7734 50.1458C11.2023 49.5764 10.9167 48.8849 10.9167 48.0714V35.381H7.97917C7.69358 35.381 7.45898 35.2894 7.27539 35.1064C7.0918 34.9234 7 34.6895 7 34.4048V24.6429C7 24.3581 7.0918 24.1243 7.27539 23.9412C7.45898 23.7582 7.69358 23.6667 7.97917 23.6667H21.4427C19.5456 23.6667 17.9289 23.0006 16.5928 21.6685C15.2566 20.3364 14.5885 18.7247 14.5885 16.8333C14.5885 14.942 15.2566 13.3302 16.5928 11.9981C17.9289 10.666 19.5456 10 21.4427 10C23.6254 10 25.339 10.783 26.5833 12.349L30.5 17.3824L34.4167 12.349C35.661 10.783 37.3746 10 39.5573 10C41.4544 10 43.0711 10.666 44.4072 11.9981C45.7434 13.3302 46.4115 14.942 46.4115 16.8333C46.4115 18.7247 45.7434 20.3364 44.4072 21.6685C43.0711 23.0006 41.4544 23.6667 39.5573 23.6667H53.0208C53.3064 23.6667 53.541 23.7582 53.7246 23.9412C53.9082 24.1243 54 24.3581 54 24.6429Z" fill="#949494"/>
</svg>
