<svg width="61" height="61" viewBox="0 0 61 61" fill="none" xmlns="http://www.w3.org/2000/svg">
<path d="M30.6831 37.087C27.6752 37.087 25.1255 35.3344 24.2288 32.9063V33.8409L22.3578 53.8072C22.2074 55.4134 23.3956 56.8374 25.0127 56.9872C26.6281 57.1368 28.0608 55.9552 28.2115 54.3493L29.536 40.2152H31.8456L33.17 54.3493C33.3205 55.9555 34.7534 57.1368 36.3689 56.9872C37.986 56.8374 39.1742 55.4134 39.0238 53.8072L37.1525 33.8381V32.8666C36.2691 35.3153 33.7075 37.087 30.6831 37.087Z" fill="#949494"/>
<path d="M30.6832 36.1826C34.1274 36.1826 36.9715 33.8851 37.4195 30.9056C36.8817 31.0041 36.3202 31.0799 35.7493 31.1562C34.7858 31.2849 34.1011 31.4017 33.6115 31.504C33.7886 31.9615 33.8325 32.4749 33.705 32.9857C33.4282 34.0935 32.4341 34.867 31.2869 34.867C31.0852 34.867 30.8827 34.8425 30.6855 34.7938C30.5855 34.7693 28.1975 34.1785 25.7839 33.2622C25.3873 33.1116 24.9839 32.9508 24.5833 32.7787C25.6927 34.7949 28.0068 36.1826 30.6832 36.1826ZM22.425 35.0959C22.4655 35.1159 22.5083 35.1252 22.5502 35.1252C22.6539 35.1252 22.7539 35.068 22.8038 34.9695C22.8735 34.8307 22.8171 34.6617 22.678 34.5919C22.6721 34.5891 22.1106 34.3007 21.9363 33.7392C21.8247 33.3796 21.8933 32.9725 22.1394 32.5292C22.2151 32.3932 22.1652 32.2217 22.0281 32.1468C21.891 32.0714 21.7187 32.1212 21.6431 32.2575C21.3184 32.8424 21.2357 33.3991 21.3972 33.9121C21.6462 34.7042 22.3933 35.0804 22.425 35.0959Z" fill="#949494"/>
<path d="M20.8711 31.6698C20.7362 31.5893 20.5625 31.6324 20.4821 31.7656C19.965 32.6179 19.8055 33.4388 20.0081 34.205C20.3166 35.3713 21.3552 35.9655 21.3994 35.99C21.4434 36.0147 21.4912 36.0263 21.5383 36.0263C21.6371 36.0263 21.7332 35.9748 21.7853 35.8832C21.8621 35.7478 21.8142 35.576 21.6777 35.4997C21.6692 35.4947 20.8042 35.0005 20.556 34.0616C20.3937 33.4481 20.532 32.7734 20.9671 32.0564C21.0481 31.9233 21.0051 31.7501 20.8711 31.6698ZM38.4955 34.0991C38.3561 34.1686 38.2991 34.337 38.3685 34.4761C38.4178 34.5753 38.5181 34.6327 38.6224 34.6327C38.6646 34.6327 38.7077 34.6234 38.7479 34.6034C38.7796 34.5877 39.5264 34.2117 39.776 33.4193C39.9372 32.9063 39.8545 32.3493 39.5301 31.7644C39.4542 31.6284 39.2822 31.5789 39.1451 31.6538C39.0083 31.729 38.9584 31.9002 39.0338 32.0362C39.28 32.4797 39.3479 32.8869 39.2366 33.2462C39.0641 33.8034 38.5102 34.0915 38.4955 34.0991Z" fill="#949494"/>
<path d="M39.4944 35.0073C39.3587 35.0839 39.3108 35.2554 39.3873 35.3908C39.4397 35.4826 39.5354 35.5338 39.6343 35.5338C39.6814 35.5338 39.7292 35.522 39.7731 35.4975C39.8173 35.473 40.8559 34.8786 41.1645 33.7125C41.367 32.9463 41.2075 32.1255 40.6905 31.2731C40.6098 31.1399 40.4358 31.0971 40.3015 31.1774C40.1675 31.2576 40.1244 31.4308 40.2052 31.564C40.6389 32.279 40.7778 32.952 40.6177 33.5639C40.3752 34.4931 39.5133 34.9966 39.4944 35.0073ZM42.9697 6.23194C42.3731 4.40949 38.9411 5.76788 38.3433 7.89782C41.3129 7.01926 43.5312 7.9471 42.9697 6.23194ZM37.3557 4.10002C35.9765 3.44702 34.8903 6.14831 35.796 7.65115C36.9075 5.47559 38.6538 4.71473 37.3557 4.10002ZM38.4951 11.1172C40.6304 10.8976 42.0209 11.8125 41.86 10.5732C41.6889 9.25593 39.1768 9.74336 38.4951 11.1172ZM15 30.2276L15.0612 30.4593C15.7547 30.2783 16.1851 29.9595 16.3406 29.5123C16.5967 28.7757 16.0009 27.9819 15.9754 27.9484L15.7834 28.0931C15.7887 28.1002 16.3273 28.8171 16.1128 29.4341C15.9854 29.801 15.6108 30.0679 15 30.2276ZM17.2568 29.2629C17.4305 29.3594 17.6249 29.4079 17.839 29.4079C18.1433 29.4079 18.4873 29.3104 18.8675 29.1159L18.757 28.9027C18.1855 29.195 17.7206 29.246 17.375 29.0542C16.7916 28.7306 16.7137 27.8101 16.7129 27.8008L16.4726 27.8189C16.476 27.8619 16.5605 28.8757 17.2568 29.2629ZM17.6115 30.4647C17.3186 31.2038 17.9764 32.083 18.0045 32.1201L18.1969 31.976C18.1906 31.9678 17.5923 31.1658 17.8362 30.552C17.9747 30.2034 18.366 29.9705 18.9989 29.8595L18.9573 29.6236C18.2354 29.7497 17.7827 30.0327 17.6115 30.4647ZM16.7429 30.7299C16.3265 30.5066 15.7853 30.5886 15.1349 30.9729L15.2581 31.1791C15.8307 30.8409 16.2913 30.7606 16.6282 30.9408C17.2118 31.2528 17.2662 32.2547 17.2668 32.2649L17.5076 32.2539C17.5053 32.2066 17.4467 31.1067 16.7429 30.7299ZM42.7844 28.0931C42.7898 28.1002 43.3284 28.8171 43.1139 29.4341C42.9864 29.801 42.6119 30.0679 42.0011 30.2276L42.0623 30.4593C42.7558 30.2783 43.1862 29.9595 43.3417 29.5123C43.5978 28.7757 43.002 27.9819 42.9765 27.9484L42.7844 28.0931ZM44.2579 29.2629C44.4316 29.3594 44.6259 29.4079 44.8401 29.4079C45.1444 29.4079 45.4883 29.3104 45.8685 29.1159L45.7581 28.9027C45.1866 29.195 44.7217 29.246 44.3761 29.0542C43.7927 28.7306 43.7148 27.8101 43.714 27.8008L43.4737 27.8189C43.4771 27.8619 43.5616 28.8757 44.2579 29.2629ZM44.6126 30.4647C44.3197 31.2038 44.9775 32.083 45.0056 32.1201L45.1979 31.976C45.1917 31.9678 44.5934 31.1658 44.8373 30.552C44.9758 30.2034 45.3671 29.9705 46 29.8595L45.9584 29.6236C45.2365 29.7497 44.7838 30.0327 44.6126 30.4647ZM43.629 30.9406C44.2126 31.2526 44.267 32.2545 44.2676 32.2646L44.5084 32.2536C44.5061 32.2069 44.4475 31.107 43.7437 30.7302C43.3273 30.5069 42.7861 30.5889 42.1357 30.9732L42.2589 31.1794C42.8315 30.8406 43.2921 30.7603 43.629 30.9406ZM26.0165 32.6571C28.379 33.5543 30.7427 34.1405 30.8421 34.165C30.9908 34.2017 31.1399 34.2194 31.2866 34.2194C32.1127 34.2194 32.8641 33.6624 33.0723 32.8297C33.3174 31.849 32.7159 30.8561 31.7291 30.6122C28.4504 29.8024 25.0269 28.4429 24.1886 27.644C24.3512 26.5213 24.6283 24.7143 25.0107 23.3002L25.6575 23.392C25.4346 24.2173 25.1717 25.4698 24.8875 27.37C25.5009 27.7859 26.8089 28.3733 28.4068 28.9382C29.8667 26.9437 33.0091 26.5221 35.0852 26.2448C35.4549 26.1955 35.9136 26.1341 36.329 26.0657C36.0533 24.5338 35.8071 23.5525 35.6054 22.924L36.2111 22.6908C36.5856 23.8178 36.8763 25.3744 37.08 26.5821C36.5434 26.7038 35.7538 26.8091 35.1722 26.8868C33.1706 27.154 30.4055 27.524 29.0601 29.1629C29.9545 29.4605 30.9166 29.7444 31.8864 29.984C32.4691 30.1282 32.953 30.4664 33.2856 30.9121C34.107 30.7229 35.0963 30.5905 35.6623 30.5151C37.6962 30.2436 39.4527 30.0091 40.3715 28.7782C40.7945 28.2117 40.9633 27.5066 40.8472 26.793C40.5372 24.8915 40.2222 22.964 39.6578 21.3637C39.0705 19.6984 38.2118 18.3898 36.8066 17.8362C35.9405 20.368 33.527 22.1955 30.6905 22.1955C27.8588 22.1955 25.4487 20.3745 24.579 17.8495C22.8349 18.565 21.9122 20.4837 21.33 22.7778C20.952 24.2663 20.7161 25.9111 20.4908 27.4855C20.1214 30.069 23.2497 31.6065 26.0165 32.6571Z" fill="#949494"/>
<path d="M30.6908 21.5475C33.8984 21.5475 36.4986 18.9631 36.4986 15.775C36.4986 12.5868 33.8984 10.0024 30.6908 10.0024C27.4832 10.0024 24.8829 12.5868 24.8829 15.775C24.8829 18.9631 27.4832 21.5475 30.6908 21.5475ZM34.2038 17.8308C34.4602 18.8068 32.8289 18.187 31.1328 18.6266C29.4363 19.0662 28.3178 20.3986 28.0614 19.4227C27.8056 18.4467 28.9731 17.2989 30.669 16.8594C32.3654 16.4198 33.948 16.8548 34.2038 17.8308Z" fill="#949494"/>
</svg>
