<svg width="61" height="61" viewBox="0 0 61 61" fill="none" xmlns="http://www.w3.org/2000/svg">
<path d="M15.8276 36.0351C15.2304 36.5217 14.5566 36.9002 13.8216 37.1628L15.8658 40.7391C16.486 40.2911 17.1751 39.9357 17.9254 39.704L15.8276 36.0351ZM44.8294 35.7416L42.6244 39.5882C43.3901 39.7658 44.1097 40.0748 44.7605 40.4919L46.7588 37.0006C46.0468 36.6839 45.396 36.2591 44.8294 35.7416ZM34.0647 45.8678H26.9368C27.0109 46.6451 26.9487 47.4296 26.753 48.1851H34.2485C34.0528 47.4296 33.9906 46.6451 34.0647 45.8678ZM15.8658 20.2625L13.8216 23.8387C14.5566 24.1014 15.2304 24.4798 15.8276 24.9665L17.9254 21.2975C17.1751 21.0658 16.486 20.7105 15.8658 20.2625ZM44.7605 20.5097C44.1097 20.9268 43.3901 21.2357 42.6244 21.4134L44.8294 25.26C45.396 24.7347 46.0544 24.3099 46.7665 24.001L44.7605 20.5097ZM34.2408 12.8242H26.7607C26.8985 13.3726 26.9674 13.9442 26.9674 14.5312C26.9674 14.7398 26.9598 14.9406 26.9368 15.1414H34.0647C34.0429 14.9388 34.0327 14.735 34.0341 14.5312C34.0341 13.9442 34.103 13.3726 34.2408 12.8242Z" fill="#949494"/>
<path d="M49.5212 36.0274C52.5471 36.0274 55 33.5527 55 30.5C55 27.4473 52.5471 24.9726 49.5212 24.9726C46.4953 24.9726 44.0424 27.4473 44.0424 30.5C44.0424 33.5527 46.4953 36.0274 49.5212 36.0274Z" fill="#949494"/>
<path d="M41.0411 20.0547C44.067 20.0547 46.5199 17.58 46.5199 14.5274C46.5199 11.4747 44.067 9 41.0411 9C38.0152 9 35.5623 11.4747 35.5623 14.5274C35.5623 17.58 38.0152 20.0547 41.0411 20.0547Z" fill="#949494"/>
<path d="M19.9589 52C22.9848 52 25.4377 49.5253 25.4377 46.4726C25.4377 43.42 22.9848 40.9453 19.9589 40.9453C16.933 40.9453 14.4801 43.42 14.4801 46.4726C14.4801 49.5253 16.933 52 19.9589 52Z" fill="#949494"/>
<path d="M41.0411 52C44.067 52 46.5199 49.5253 46.5199 46.4726C46.5199 43.42 44.067 40.9453 41.0411 40.9453C38.0152 40.9453 35.5623 43.42 35.5623 46.4726C35.5623 49.5253 38.0152 52 41.0411 52Z" fill="#949494"/>
<path d="M19.9589 20.0547C22.9848 20.0547 25.4377 17.58 25.4377 14.5274C25.4377 11.4747 22.9848 9 19.9589 9C16.933 9 14.4801 11.4747 14.4801 14.5274C14.4801 17.58 16.933 20.0547 19.9589 20.0547Z" fill="#949494"/>
<path d="M11.4788 36.0274C14.5047 36.0274 16.9576 33.5527 16.9576 30.5C16.9576 27.4473 14.5047 24.9726 11.4788 24.9726C8.45295 24.9726 6 27.4473 6 30.5C6 33.5527 8.45295 36.0274 11.4788 36.0274Z" fill="#949494"/>
<path d="M35.8196 33.8507V36.9264H24.7693V33.8507C24.7693 32.8481 25.4385 31.9892 26.3848 31.7289L28.0003 31.3049C28.1161 31.2774 28.224 31.223 28.3153 31.146C28.4066 31.069 28.4789 30.9716 28.5262 30.8615V30.8422C28.5783 30.7075 28.5933 30.5611 28.5697 30.4185C28.5461 30.2759 28.4848 30.1423 28.3923 30.0319C28.0871 29.67 27.8796 29.2347 27.7897 28.7683C27.6557 28.5852 27.5126 28.2762 27.4169 27.9294C27.2446 27.3702 27.2637 26.9168 27.4452 26.9168C27.4743 26.9168 27.5026 26.9261 27.5409 26.9454L27.5026 26.6851C27.2637 24.9302 28.4581 24.0813 30.0544 24.0813H30.5322C32.1285 24.0813 33.3229 24.9302 33.084 26.6851L33.0457 26.9454C33.0749 26.9283 33.1077 26.9185 33.1414 26.9168C33.3229 26.9168 33.342 27.3702 33.1698 27.9294C33.0741 28.277 32.9309 28.5852 32.7877 28.7683C32.7056 29.2381 32.5011 29.6774 32.1951 30.0412C32.0037 30.2729 31.9562 30.5718 32.0611 30.8515V30.8615C32.1568 31.0832 32.3482 31.2469 32.5772 31.3049L34.1926 31.7289C34.6581 31.8516 35.0701 32.1263 35.3644 32.5102C35.6588 32.894 35.8188 33.3654 35.8196 33.8507ZM42.4177 34.6702V36.9272H36.9696V33.8492C36.9696 33.4792 36.9121 33.12 36.7858 32.7732C36.9129 32.7146 37.0148 32.6118 37.0729 32.4836V32.472C37.1079 32.3711 37.1167 32.2629 37.0986 32.1576C37.0805 32.0523 37.0361 31.9534 36.9696 31.8703C36.746 31.6059 36.5958 31.2867 36.5339 30.9449C36.4306 30.8175 36.3272 30.5857 36.2583 30.3316C36.132 29.9269 36.1434 29.5909 36.2813 29.5909C36.2927 29.5909 36.3157 29.5909 36.3502 29.6141L36.3157 29.4171C36.1434 28.1326 37.0155 27.5077 38.1854 27.5077H38.5406C39.7105 27.5077 40.5825 28.1326 40.4103 29.4171L40.3873 29.6141C40.4103 29.5909 40.4332 29.5909 40.4562 29.5909C40.5825 29.5909 40.6055 29.9261 40.4792 30.3316C40.3988 30.5865 40.2954 30.8182 40.1921 30.9449C40.1351 31.2917 39.9844 31.6159 39.7564 31.8818C39.6887 31.9621 39.6442 32.0597 39.628 32.1638C39.6118 32.268 39.6244 32.3746 39.6646 32.472V32.4836C39.7335 32.645 39.8713 32.7616 40.0428 32.808L41.2241 33.12C41.565 33.209 41.8669 33.4094 42.0829 33.6898C42.2989 33.9703 42.4166 34.3151 42.4177 34.6702ZM24.3299 30.3308C24.261 30.5857 24.1576 30.8175 24.0542 30.9441C23.9923 31.2894 23.8421 31.6123 23.6186 31.8811C23.5517 31.9617 23.5069 32.0587 23.4888 32.1622C23.4707 32.2658 23.4798 32.3723 23.5152 32.4712V32.4828C23.5727 32.6102 23.676 32.7137 23.8023 32.7724C23.676 33.12 23.6186 33.4784 23.6186 33.8484V36.9264H18.1704V34.6695C18.1704 33.9403 18.6635 33.3039 19.3518 33.1192L20.5446 32.8072C20.6282 32.7862 20.7058 32.7459 20.7714 32.6897C20.837 32.6334 20.8888 32.5626 20.9228 32.4828V32.4712C20.9625 32.3718 20.9749 32.2635 20.9587 32.1576C20.9426 32.0517 20.8984 31.9522 20.831 31.8695C20.6039 31.606 20.4497 31.2869 20.3838 30.9441C20.292 30.8167 20.1886 30.585 20.1082 30.3308C19.9819 29.9261 20.0048 29.5901 20.1312 29.5901C20.1541 29.5901 20.1771 29.5901 20.2001 29.6133L20.1771 29.4163C20.0048 28.1318 20.8769 27.5069 22.0468 27.5069H22.402C23.5719 27.5069 24.4439 28.1318 24.2717 29.4163L24.2372 29.6133C24.2717 29.5901 24.2946 29.5901 24.3061 29.5901C24.4447 29.5901 24.4562 29.9261 24.3299 30.3308Z" fill="#949494"/>
</svg>
