<svg width="46" height="43" viewBox="0 0 46 43" fill="none" xmlns="http://www.w3.org/2000/svg">
<path d="M23 25.3125C26.3566 25.3125 29.5758 23.9791 31.9493 21.6056C34.3228 19.2321 35.6562 16.0129 35.6562 12.6562C35.6562 9.2996 34.3228 6.08044 31.9493 3.70693C29.5758 1.33342 26.3566 0 23 0C19.6434 0 16.4242 1.33342 14.0507 3.70693C11.6772 6.08044 10.3438 9.2996 10.3438 12.6562C10.3438 16.0129 11.6772 19.2321 14.0507 21.6056C16.4242 23.9791 19.6434 25.3125 23 25.3125ZM14.6768 28.125C6.8457 28.125 0.5 34.4707 0.5 42.3018C0.5 43.7959 1.71289 45 3.19824 45H42.8018C44.2959 45 45.5 43.7871 45.5 42.3018C45.5 34.4707 39.1543 28.125 31.3232 28.125H14.6768Z" fill="#B7B7B7"/>
</svg>
