<svg width="61" height="51" viewBox="0 0 61 51" fill="none" xmlns="http://www.w3.org/2000/svg">
<path d="M60.3631 30.6527C59.4792 29.7357 58.3988 28.9152 57.2693 28.2395C56.9746 28.0947 56.68 27.9017 56.3853 27.7569C56.238 27.6603 56.0907 27.6121 55.9433 27.5638L55.5014 27.3708C55.354 27.3225 55.2067 27.226 55.0103 27.1777L54.5192 26.9846C54.2246 26.8881 53.8808 26.7433 53.537 26.6468C52.2111 26.2607 50.8852 26.0194 49.5593 25.8746C49.2155 25.8263 48.8717 25.8263 48.528 25.8263C48.1842 25.8263 47.8405 25.7781 47.4967 25.7781H46.4654C46.1217 25.7781 45.7779 25.8263 45.4833 25.8263C44.1573 25.9228 42.8314 26.0676 41.5546 26.309C41.2108 26.3572 40.9162 26.4537 40.6215 26.502C40.3269 26.5503 39.9831 26.6468 39.6885 26.6951C39.0501 26.8399 38.4608 26.9846 37.8224 27.1294C35.416 27.7569 33.0588 28.4326 30.849 28.9635C30.5543 29.06 30.3088 29.1082 30.0141 29.1565L29.5722 29.253L29.1793 29.3496C28.6391 29.4461 28.0989 29.5426 27.5096 29.6391L26.6748 29.7357L25.889 29.8322H25.4962L25.1033 29.9287L24.7104 29.977H24.2684L23.4336 30.0253H20.8309C19.7014 29.977 18.5228 29.8805 17.3442 29.7839C14.987 29.5909 12.6298 29.2048 10.2235 28.8669L6.58944 28.2878C5.36173 28.0947 4.13402 27.9499 2.8572 27.8534C2.61166 27.8534 2.41523 27.9499 2.2679 28.143C2.07147 28.4326 2.16968 28.8187 2.46433 29.0117C3.54472 29.6391 4.6251 30.2666 5.7546 30.7975C6.88409 31.3766 8.01358 31.9075 9.19218 32.3902C11.5003 33.3554 13.9066 34.2242 16.4602 34.8516C17.737 35.1895 19.0139 35.4308 20.2907 35.6238L21.2728 35.7686C21.4202 35.7686 21.6166 35.8169 21.7639 35.8169L23.2372 35.9617L24.2193 36.0099H24.7104C24.8577 36.0099 25.0542 36.0099 25.2506 36.0099H26.2819C26.6257 36.0099 26.9694 35.9617 27.3132 35.9617L28.3444 35.8652C29.032 35.7686 29.6704 35.6721 30.3579 35.5756L31.3401 35.3825C31.6838 35.3343 31.9785 35.2377 32.3222 35.1895C37.3804 33.8381 41.8492 31.8593 46.2199 30.894C47.3494 30.6527 48.4298 30.4596 49.5593 30.3148C50.6888 30.17 51.8182 30.1218 52.8986 30.17C54.0281 30.2183 55.1576 30.3148 56.2871 30.5562C57.4166 30.7975 58.5461 31.1353 59.7247 31.5214C59.9211 31.5697 60.1176 31.5697 60.2649 31.4249C60.5595 31.1836 60.5595 30.8457 60.3631 30.6527ZM54.5683 34.2725C50.8852 34.7551 47.4476 36.1547 44.01 38.6162C43.5189 38.954 43.0278 39.3401 42.4877 39.7262C39.7867 41.6568 37.0366 43.6839 34.1883 45.4696C32.0276 46.821 29.7195 48.1241 27.1658 48.6067C27.8534 48.8963 28.6391 49.1859 29.4248 49.4272C33.2553 50.6821 36.6929 50.8269 39.934 49.9099C42.5859 49.1859 44.7466 47.5449 46.711 45.904C49.1664 43.8286 51.2781 41.3189 53.2915 38.9058L53.7826 38.3266C55.4032 36.396 57.3675 35.0447 59.6265 34.3207C58.055 34.0311 56.3853 34.0311 54.5683 34.2725ZM32.4204 41.2224C32.9606 40.6432 33.4026 40.1123 33.8446 39.5332C31.4874 40.3054 29.032 40.3054 26.6257 40.1606C23.4336 39.9676 20.2416 39.5815 17.0986 39.1953C16.5093 39.1471 15.92 39.0505 15.3798 39.0023C11.4512 38.5196 7.91536 38.954 4.67421 40.2571C3.10274 40.8846 1.72771 41.6568 0.5 42.5738C2.70988 42.1394 4.91975 42.3807 7.17874 43.2012L7.86626 43.4425C10.6654 44.5043 13.5628 45.5661 16.5584 46.1453C18.9156 46.6279 21.4693 46.9658 23.9738 46.3866C27.1167 45.6627 29.8668 43.9734 32.4204 41.2224Z" fill="#949494"/>
<path d="M12.6298 13.6156L14.9379 12.409V26.502C15.8218 26.5985 16.7058 26.6951 17.5897 26.7916C18.7192 26.8881 19.8487 26.9846 20.88 27.0329L22.1077 27.0812H23.2863L25.4471 26.9846L26.2328 26.8881L27.1168 26.7433C27.5587 26.6468 28.0007 26.5985 28.3936 26.502L29.2284 26.309C29.3266 26.309 29.4249 26.2607 29.5231 26.2607C29.6704 26.2124 29.8177 26.2124 29.965 26.1642H30.0142C31.291 25.8746 32.5678 25.5367 33.9428 25.1506C34.925 24.9093 35.9072 24.6197 36.9384 24.3784C37.5277 24.2336 38.2152 24.0406 38.8537 23.8958C39.1483 23.8475 39.5412 23.751 39.8849 23.6545L40.1796 23.6062C40.4251 23.5579 40.6707 23.5097 40.9162 23.4614C42.2912 23.2201 43.7645 23.027 45.1886 22.9305H45.5324C45.6797 22.9305 45.827 22.9305 45.9253 22.9305V12.409L48.2334 13.6156C48.528 13.8087 48.9209 13.9052 49.2646 13.9052C49.8539 13.9052 50.3941 13.6156 50.787 13.1813C51.0816 12.7952 51.1799 12.3125 51.1307 11.8299C51.0325 11.3472 50.787 10.9129 50.3941 10.6233L50.345 10.575L31.5365 0.825779C30.8981 0.391407 30.1124 0.391407 29.474 0.825779L10.5672 10.575L10.5181 10.6233C10.1253 10.9129 9.87972 11.3472 9.7815 11.8299C9.73239 12.3125 9.83061 12.7952 10.1253 13.1813C10.7146 13.9535 11.8441 14.1465 12.6298 13.6156Z" fill="#949494"/>
</svg>
