<svg width="43" height="51" viewBox="0 0 43 51" fill="none" xmlns="http://www.w3.org/2000/svg">
<path d="M31.1293 38.1869C29.6281 38.0277 28.127 37.7095 26.6258 37.0731C26.3888 40.7326 26.4678 44.7104 26.8628 48.9269C27.0208 50.1203 27.9689 50.9954 29.1541 50.9954C30.5762 50.9954 31.5243 49.802 31.4453 48.4496C31.0503 44.8696 30.8922 41.3691 31.1293 38.1869ZM38.8721 37.1526C37.3709 37.7095 35.7908 38.1073 34.2106 38.1869C34.0526 41.5282 34.1316 45.1878 34.5266 48.9269C34.6846 50.1203 35.7117 51.0749 37.0549 50.9954C38.319 50.8363 39.1881 49.7225 39.1091 48.4496C38.6351 44.4718 38.556 40.6531 38.8721 37.1526ZM34.1316 30.4699C33.4205 32.061 31.8403 31.1064 24.8086 31.4246L24.0975 35.0842C29.4701 38.346 35.7908 38.4255 41.4003 35.0842L40.2152 29.0379C38.8721 29.8335 36.8969 30.4699 34.1316 30.4699ZM32.7884 9.06938C35.2377 9.06938 37.2919 7.08048 37.2919 4.53469C37.2919 2.06845 35.3167 0 32.7884 0C30.2602 0 28.285 1.9889 28.285 4.53469C28.285 7.08048 30.2602 9.06938 32.7884 9.06938ZM20.3841 24.1055L19.9891 24.7419C19.6731 25.3783 19.8311 26.1739 20.3841 26.5717V24.1055ZM10.5081 38.346H0.632066C0.237025 38.346 0 38.6642 0 38.9824V48.37C0 48.7678 0.316033 49.0065 0.632066 49.0065H10.5081C10.9031 49.0065 11.1402 48.6882 11.1402 48.37V39.062C11.1402 38.6642 10.8241 38.346 10.5081 38.346ZM7.11075 43.2784L6.32066 42.7215C6.24165 42.642 6.16265 42.7215 6.08364 42.7215L5.45157 43.358L4.89851 42.7215C4.89851 42.7215 4.81951 42.642 4.7405 42.642H4.66149L3.87141 43.1193V38.5051H7.11075V43.2784ZM22.7544 38.346H12.9574C12.5623 38.346 12.3253 38.6642 12.3253 38.9824V48.37C12.3253 48.7678 12.6413 49.0065 12.9574 49.0065H22.7544C23.1494 49.0065 23.3865 48.6882 23.3865 48.37V39.062C23.3865 38.6642 23.0704 38.346 22.7544 38.346ZM19.357 43.2784L18.5669 42.7215C18.4879 42.642 18.4089 42.7215 18.3299 42.7215L17.6979 43.358L17.1448 42.7215C17.1448 42.7215 17.0658 42.642 16.9868 42.642H16.9078L16.1177 43.1193V38.5051H19.357V43.2784ZM6.55769 37.7891H16.3547C16.7498 37.7891 16.9868 37.4709 16.9868 37.1526V27.6855C16.9868 27.2877 16.6707 27.049 16.3547 27.049H6.55769C6.16265 27.049 5.92562 27.3672 5.92562 27.6855V37.0731C5.92562 37.4709 6.24166 37.7891 6.55769 37.7891ZM9.95504 31.9815V27.3672H13.1154V31.9815L12.3253 31.4246C12.2463 31.345 12.1673 31.4246 12.0883 31.4246L11.4562 32.0611L10.9031 31.4246C10.9031 31.4246 10.8241 31.345 10.7451 31.345H10.6661L9.95504 31.9815ZM24.1765 13.5245C24.1765 14.161 24.4136 14.7974 24.8876 15.3543C25.9147 16.5476 27.8109 16.7863 29.1541 16.0703C31.9193 14.5587 30.7342 10.6605 27.4159 10.6605C25.6777 10.5809 24.1765 11.8538 24.1765 13.5245ZM25.8357 14.5587C25.8357 14.2405 25.9937 14.0018 26.2308 13.7632C26.3098 13.6836 26.3888 13.6836 26.3888 13.6041C26.3098 13.6041 26.2308 13.445 26.2308 13.3654C26.2308 13.2063 26.3888 13.0472 26.5468 13.0472C26.7048 13.0472 26.8628 13.2063 26.8628 13.3654V13.445C26.9418 13.445 27.0208 13.445 27.0208 13.3654C27.1789 13.3654 27.3369 13.2858 27.4159 13.2858C27.6529 13.2858 27.8109 13.2858 28.0479 13.3654V13.2858C28.0479 13.1267 28.206 12.9676 28.364 12.9676C28.522 12.9676 28.68 13.1267 28.68 13.2858C28.68 13.445 28.601 13.5245 28.522 13.6041C28.759 13.7632 28.917 13.9223 28.996 14.0814C29.0751 14.2405 29.075 14.3996 29.075 14.5587C28.996 16.1499 25.8357 16.1499 25.8357 14.5587Z" fill="#949494"/>
<path d="M30.9713 12.7289C31.2873 12.4107 31.2873 11.9334 30.9713 11.456C30.6552 10.9787 30.1022 10.74 29.7071 10.9787C30.3392 11.3765 30.8133 12.0129 30.9713 12.7289ZM25.2037 10.8992C24.8086 10.6605 24.1766 10.8992 23.9395 11.3765C23.7025 11.7743 23.7025 12.3312 23.9395 12.6494C24.0975 12.0129 24.5716 11.3765 25.2037 10.8992ZM26.3888 14.7974C26.4678 14.7974 27.4159 15.593 28.443 14.7974H26.3888ZM29.2331 16.3885C28.68 16.6272 28.127 16.7863 27.4949 16.7863C27.3369 16.8659 26.3888 16.7863 25.2827 16.2294C24.8876 16.4681 24.2556 16.8659 23.8605 17.3432H31.0503C30.6552 16.8659 29.9442 16.3885 29.5491 16.2294C29.4701 16.309 29.3911 16.309 29.2331 16.3885ZM21.9643 30.3904H25.0456C33.0255 30.3108 32.7885 30.5495 33.1045 30.2313C32.3144 29.8335 31.7614 29.0379 31.7614 28.1628C31.7614 27.1286 32.3934 26.333 33.2625 26.0148V19.0139C33.2625 18.6956 33.0255 18.457 32.7094 18.457H21.9643C21.6483 18.457 21.4113 18.6956 21.4113 19.0139V29.8335C21.4113 30.1517 21.6483 30.3904 21.9643 30.3904Z" fill="#949494"/>
<path d="M38.24 11.297C35.6327 9.9445 33.1045 9.54672 30.5762 10.1036C31.0503 10.1832 31.4453 10.5014 31.7613 10.9787C32.2354 11.6947 32.1564 12.5698 31.6033 13.2063L31.4453 13.3654V13.5245C31.4453 14.3996 31.1293 15.2747 30.4972 15.9112C31.0503 16.309 31.6033 16.7863 31.9984 17.4228H32.7884C33.6575 17.4228 34.3686 18.1388 34.3686 19.0139V25.9352C36.1068 25.9352 38.161 25.5375 38.8721 24.1055C39.0301 23.8668 39.1091 23.5486 39.1091 23.2303L38.556 20.5254V17.1045C39.5831 19.173 40.5312 22.3552 39.5041 24.4237C39.4251 24.5032 39.4251 24.5828 39.3461 24.6623C38.556 25.9352 36.8179 26.5717 34.2896 26.6512C33.0255 26.8104 32.5514 27.3673 32.5514 28.1628C32.5514 28.9584 33.1835 29.6744 34.0526 29.6744C34.1316 29.6744 37.6079 29.8335 40.0572 28.1628C46.9309 24.0259 39.8202 11.7743 38.24 11.297Z" fill="#949494"/>
</svg>
